<svg xmlns="http://www.w3.org/2000/svg" xmlns:xlink="http://www.w3.org/1999/xlink" viewBox="0 0 48 48" width="256px" height="256px"><defs><radialGradient id="6SQWEedlkmZBIUGwkrqy6w" cx="9.101" cy="13.35" r="2.353" xlink:href="#6SQWEedlkmZBIUGwkrqy6a"/><radialGradient id="6SQWEedlkmZBIUGwkrqy6a" cx="33.016" cy="39.074" r="5.555" data-name="Новый образец градиента 1" gradientTransform="rotate(-128.483 37.073 30.666) scale(1 .56962)" gradientUnits="userSpaceOnUse"><stop offset="0" stop-color="#ffe16e"/><stop offset=".393" stop-color="#ffd226"/><stop offset=".59" stop-color="#fdcd23"/><stop offset=".836" stop-color="#f6bd1b"/><stop offset=".999" stop-color="#f0af13"/></radialGradient><radialGradient id="6SQWEedlkmZBIUGwkrqy6L" cx="19.597" cy="16.665" r="9.318" gradientTransform="matrix(-.22414 -.97456 .72829 -.1675 11.853 38.555)" xlink:href="#6SQWEedlkmZBIUGwkrqy6g"/><radialGradient id="6SQWEedlkmZBIUGwkrqy6j" cx="17.332" cy="25.762" r="5.734" gradientTransform="matrix(.98187 -.18954 .099 .5128 -2.236 15.837)" xlink:href="#6SQWEedlkmZBIUGwkrqy6a"/><radialGradient id="6SQWEedlkmZBIUGwkrqy6k" cx="20.834" cy="24.897" r="8.012" data-name="Безымянный градиент 32" gradientTransform="matrix(.84909 -.52824 .23434 .37667 -2.69 26.525)" gradientUnits="userSpaceOnUse"><stop offset="0" stop-color="#4c5185"/><stop offset=".526" stop-color="#2d447e"/><stop offset=".828" stop-color="#263b72"/><stop offset="1" stop-color="#203469"/></radialGradient><radialGradient id="6SQWEedlkmZBIUGwkrqy6J" cx="19.317" cy="2.223" r="5.073" xlink:href="#6SQWEedlkmZBIUGwkrqy6e"/><radialGradient id="6SQWEedlkmZBIUGwkrqy6b" cx="35.826" cy="44.793" r="2.879" gradientUnits="userSpaceOnUse"><stop offset=".002" stop-color="#3a434a"/><stop offset="1" stop-color="#1c2024"/></radialGradient><radialGradient id="6SQWEedlkmZBIUGwkrqy6c" cx="36.718" cy="45.519" r="2.292" gradientUnits="userSpaceOnUse"><stop offset=".516" stop-color="#ccc"/><stop offset=".789" stop-color="#b9bec1"/><stop offset=".992" stop-color="#a7b2b8"/></radialGradient><radialGradient id="6SQWEedlkmZBIUGwkrqy6l" cx="16.92" cy="34.888" r="6.449" gradientTransform="matrix(-.55826 -.82967 .54297 -.36535 7.423 61.673)" xlink:href="#6SQWEedlkmZBIUGwkrqy6a"/><radialGradient id="6SQWEedlkmZBIUGwkrqy6m" cx="20.25" cy="40.463" r="2.873" xlink:href="#6SQWEedlkmZBIUGwkrqy6b"/><radialGradient id="6SQWEedlkmZBIUGwkrqy6n" cx="20.902" cy="41.368" r="2.378" xlink:href="#6SQWEedlkmZBIUGwkrqy6c"/><radialGradient id="6SQWEedlkmZBIUGwkrqy6o" cx="14.452" cy="15.855" r="4.941" gradientTransform="matrix(.87619 .48197 -.29262 .53197 6.429 .455)" xlink:href="#6SQWEedlkmZBIUGwkrqy6a"/><radialGradient id="6SQWEedlkmZBIUGwkrqy6p" cx="17.688" cy="16.136" r="4.507" gradientTransform="rotate(-39.309 28.94 12.117) scale(1 .50191)" xlink:href="#6SQWEedlkmZBIUGwkrqy6a"/><radialGradient id="6SQWEedlkmZBIUGwkrqy6q" cx="30.485" cy="12.129" r="5.421" gradientTransform="matrix(.98316 .18277 -.0836 .4497 1.527 1.103)" xlink:href="#6SQWEedlkmZBIUGwkrqy6a"/><radialGradient id="6SQWEedlkmZBIUGwkrqy6H" cx="-240.877" cy="-1075.564" r="1.24" gradientTransform="matrix(.85272 -.52237 .27906 .45554 529.057 368.32)" gradientUnits="userSpaceOnUse"><stop offset=".002" stop-color="#f5432c"/><stop offset="1" stop-color="#cf3925"/></radialGradient><radialGradient id="6SQWEedlkmZBIUGwkrqy6G" cx="-744.454" cy="-1075.708" r="3.803" gradientTransform="matrix(-.54174 .76404 -1.09338 -.961 -1553.787 -461.468)" gradientUnits="userSpaceOnUse"><stop offset="0" stop-color="#603813"/><stop offset=".289" stop-color="#653c17"/><stop offset=".615" stop-color="#724923"/><stop offset=".957" stop-color="#895f36"/><stop offset="1" stop-color="#8c6239"/></radialGradient><radialGradient id="6SQWEedlkmZBIUGwkrqy6s" cx="36.862" cy="21.702" r="3.612" gradientTransform="rotate(26.009 21.46 18.145) scale(1 .67218)" xlink:href="#6SQWEedlkmZBIUGwkrqy6a"/><radialGradient id="6SQWEedlkmZBIUGwkrqy6t" cx="35.02" cy="18.381" r="5.866" gradientTransform="matrix(-.2339 -.97226 .48015 -.11552 34.386 54.552)" xlink:href="#6SQWEedlkmZBIUGwkrqy6a"/><radialGradient id="6SQWEedlkmZBIUGwkrqy6u" cx="7.691" cy="16.42" r="1.654" xlink:href="#6SQWEedlkmZBIUGwkrqy6a"/><radialGradient id="6SQWEedlkmZBIUGwkrqy6v" cx="9.136" cy="14.355" r="1.34" data-name="Безымянный градиент 41" gradientUnits="userSpaceOnUse"><stop offset="0" stop-color="#8c6239" stop-opacity=".9"/><stop offset=".122" stop-color="#8c6239" stop-opacity=".686"/><stop offset=".291" stop-color="#8c6239" stop-opacity=".44"/><stop offset=".463" stop-color="#8c6239" stop-opacity=".247"/><stop offset=".637" stop-color="#8c6239" stop-opacity=".109"/><stop offset=".814" stop-color="#8c6239" stop-opacity=".027"/><stop offset="1" stop-color="#8c6239" stop-opacity="0"/></radialGradient><radialGradient id="6SQWEedlkmZBIUGwkrqy6h" cx="26.876" cy="31.4" r="4.774" gradientTransform="matrix(-.56169 -.82735 .46101 -.31298 27.497 63.463)" xlink:href="#6SQWEedlkmZBIUGwkrqy6a"/><radialGradient id="6SQWEedlkmZBIUGwkrqy6x" cx="8.801" cy="13.204" r="2.643" gradientTransform="rotate(-23.29 23.007 10.276) scale(1 .55653)" xlink:href="#6SQWEedlkmZBIUGwkrqy6a"/><radialGradient id="6SQWEedlkmZBIUGwkrqy6y" cx="7.977" cy="13.49" r="1.392" xlink:href="#6SQWEedlkmZBIUGwkrqy6a"/><radialGradient id="6SQWEedlkmZBIUGwkrqy6z" cx="8.947" cy="13.654" r="1.145" xlink:href="#6SQWEedlkmZBIUGwkrqy6a"/><radialGradient id="6SQWEedlkmZBIUGwkrqy6A" cx="20.656" cy="13.14" r="2.435" gradientUnits="userSpaceOnUse"><stop offset="0" stop-color="#ffd226"/><stop offset=".325" stop-color="#fdcd23"/><stop offset=".73" stop-color="#f6bd1b"/><stop offset=".999" stop-color="#f0af13"/></radialGradient><radialGradient id="6SQWEedlkmZBIUGwkrqy6B" cx="20.335" cy="8.843" r="3.394" data-name="New Gradient Swatch 1" gradientTransform="matrix(.75386 -.65703 .48374 .55503 .728 17.296)" xlink:href="#6SQWEedlkmZBIUGwkrqy6d"/><radialGradient id="6SQWEedlkmZBIUGwkrqy6C" cx="17.308" cy="7.4" r="3.988" gradientTransform="matrix(-.00024 -1 .9442 -.00023 10.325 24.71)" xlink:href="#6SQWEedlkmZBIUGwkrqy6a"/><radialGradient id="6SQWEedlkmZBIUGwkrqy6e" cx="-744.507" cy="-1073.062" r="3.311" gradientTransform="matrix(.2301 .97314 -.50368 .11706 -342.897 856.191)" gradientUnits="userSpaceOnUse"><stop offset="0" stop-color="#8c6239"/><stop offset=".314" stop-color="#754c25"/><stop offset=".554" stop-color="#603813"/><stop offset="1" stop-color="#573210"/></radialGradient><radialGradient id="6SQWEedlkmZBIUGwkrqy6F" cx="17.598" cy="7.436" r=".222" gradientUnits="userSpaceOnUse"><stop offset="0" stop-color="#1c1911"/><stop offset=".999" stop-color="#171714"/></radialGradient><radialGradient id="6SQWEedlkmZBIUGwkrqy6O" cx="26.248" cy="10.999" r="6.332" gradientTransform="matrix(.96982 .24381 -.18023 .71691 2.775 -3.286)" xlink:href="#6SQWEedlkmZBIUGwkrqy6g"/><linearGradient id="6SQWEedlkmZBIUGwkrqy6E" x1="17.437" x2="18.024" y1="7.435" y2="7.435" gradientUnits="userSpaceOnUse"><stop offset="0" stop-color="#c69c6d"/><stop offset="1" stop-color="#754c24"/></linearGradient><linearGradient id="6SQWEedlkmZBIUGwkrqy6d" x1="35.131" x2="33.419" y1="22.775" y2="24.487" data-name="New Gradient Swatch 2" gradientUnits="userSpaceOnUse"><stop offset="0" stop-color="#8c6239" stop-opacity=".9"/><stop offset="1" stop-color="#8c6239" stop-opacity="0"/></linearGradient><linearGradient id="6SQWEedlkmZBIUGwkrqy6r" x1="32.801" x2="33.877" y1="25.106" y2="24.029" data-name="Безымянный градиент 42" xlink:href="#6SQWEedlkmZBIUGwkrqy6a"/><linearGradient id="6SQWEedlkmZBIUGwkrqy6I" x1="-240.346" x2="-240.661" y1="-1074.785" y2="-1075.456" gradientTransform="rotate(-14.21 4222.612 -1596.238)" gradientUnits="userSpaceOnUse"><stop offset="0" stop-color="#851e1e" stop-opacity=".3"/><stop offset=".073" stop-color="#5f1e1d" stop-opacity=".192"/><stop offset=".184" stop-color="#3a1d1c" stop-opacity=".083"/><stop offset=".317" stop-color="#241d1b" stop-opacity=".019"/><stop offset=".533" stop-color="#1d1d1b" stop-opacity="0"/></linearGradient><linearGradient id="6SQWEedlkmZBIUGwkrqy6f" x1="29.083" x2="18.889" y1="22.431" y2="30.887" data-name="Безымянный градиент 50" gradientUnits="userSpaceOnUse"><stop offset="0" stop-color="#172a4f"/><stop offset="1" stop-color="#172a4f" stop-opacity="0"/></linearGradient><linearGradient id="6SQWEedlkmZBIUGwkrqy6D" x1="21.213" x2="22.081" y1="8.959" y2="7.915" xlink:href="#6SQWEedlkmZBIUGwkrqy6d"/><linearGradient id="6SQWEedlkmZBIUGwkrqy6K" x1="21.5" x2="29.073" y1="23.442" y2="23.442" xlink:href="#6SQWEedlkmZBIUGwkrqy6f"/><linearGradient id="6SQWEedlkmZBIUGwkrqy6i" x1="30.401" x2="27.345" y1="32.718" y2="27.087" data-name="Безымянный градиент 33" gradientUnits="userSpaceOnUse"><stop offset="0" stop-color="#2d447e"/><stop offset="1" stop-color="#172a4f"/></linearGradient><linearGradient id="6SQWEedlkmZBIUGwkrqy6M" x1="29.021" x2="20.251" y1="24.093" y2="15.218" data-name="Безымянный градиент 16" gradientUnits="userSpaceOnUse"><stop offset="0" stop-color="#251047" stop-opacity=".3"/><stop offset=".392" stop-color="#211632" stop-opacity=".159"/><stop offset="1" stop-color="#1d1d1b" stop-opacity="0"/></linearGradient><linearGradient id="6SQWEedlkmZBIUGwkrqy6N" x1="26.665" x2="23.985" y1="23.48" y2="13.915" data-name="Безымянный градиент 54" gradientUnits="userSpaceOnUse"><stop offset="0" stop-color="#ccc"/><stop offset=".183" stop-color="#dfdfdf"/><stop offset=".328" stop-color="#f2f2f2"/><stop offset=".706" stop-color="#ccc"/><stop offset=".87" stop-color="#b9bec1"/><stop offset=".992" stop-color="#a7b2b8"/></linearGradient><linearGradient id="6SQWEedlkmZBIUGwkrqy6g" x1="16.305" x2="20.058" y1="13.709" y2="15.802" data-name="Безымянный градиент 55" gradientUnits="userSpaceOnUse"><stop offset=".002" stop-color="#aa6ce6"/><stop offset=".621" stop-color="#8f5ac0"/><stop offset=".977" stop-color="#844bb8"/></linearGradient></defs><path fill="url(#6SQWEedlkmZBIUGwkrqy6a)" d="M32.13021,32.55379a3.947,3.947,0,0,1,.684.26785,5.60844,5.60844,0,0,1,.59867.34233,6.901,6.901,0,0,1,1.03369.8273,7.77562,7.77562,0,0,1,.861.97793,5.80164,5.80164,0,0,1,.64281,1.16824c.17464.42393.32716.86721.49647,1.29583a8.15631,8.15631,0,0,0,.59259,1.212c.22429.38067.45643.7545.71094,1.10882a8.16308,8.16308,0,0,0,.82295,1.01112,1.12779,1.12779,0,1,1-1.6075,1.58227q-.02278-.0232-.044-.04726l-.04691-.05386-6.851-7.85574A1.27426,1.27426,0,0,1,31.32386,32.325Z"/><path fill="url(#6SQWEedlkmZBIUGwkrqy6h)" d="M28.86411,24.08862,32.273,32.227a1.56542,1.56542,0,0,1-2.35562,1.87716l-.28663-.20646a9.86992,9.86992,0,0,1-.874-.73406l-.40284-.38866-.38462-.40019a20.33717,20.33717,0,0,1-1.40913-1.68245c-.22041-.28952-.4355-.58244-.63927-.8825l-.30906-.448c-.10078-.15075-.19569-.30515-.29384-.45758A14.51426,14.51426,0,0,1,24.27246,26.992l-.34556-.79076a2.68518,2.68518,0,0,1,4.921-2.1504Z"/><path fill="url(#6SQWEedlkmZBIUGwkrqy6i)" d="M28.35387,32.775a6.84834,6.84834,0,0,0,3.2218-2.21277c.06743-.08861.17169-.20469.12676-.30656l-2.83832-6.16707-.01618-.03781a2.6852,2.6852,0,0,0-3.62472-1.3445,2.72738,2.72738,0,0,0-1.27048,3.554l.31973.73166c.65472,2.03534,2.94242,4.8666,3.64141,5.70175A.41571.41571,0,0,0,28.35387,32.775Z"/><path fill="url(#6SQWEedlkmZBIUGwkrqy6j)" d="M27.39487,27.46113,17.88505,31.5118a1.56464,1.56464,0,0,1-1.81582-2.44015l.19465-.23281a13.1157,13.1157,0,0,1,.91389-.95946l.47792-.44518.4891-.42671c.16191-.14409.3327-.27353.49861-.41108.16766-.13459.3324-.274.50391-.40227q.25429-.19728.51326-.38686c.17105-.129.34641-.25094.52154-.37326.35106-.24324.69619-.49632,1.05638-.72456l.53546-.35026c.17987-.1145.36332-.223.5448-.33486a20.033,20.033,0,0,1,2.25887-1.2082l.67367-.29745a2.69368,2.69368,0,0,1,2.176,4.92836Z"/><path fill="url(#6SQWEedlkmZBIUGwkrqy6k)" d="M28.83171,23.78962A2.77778,2.77778,0,0,0,25.19,22.54576l-.61236.27038a23.84749,23.84749,0,0,0-5.92,3.70647.07423.07423,0,0,0,.02376.12857c1.20854.34093,2.413,1.83227,3.17813,3.37348a.50334.50334,0,0,0,.73407.19241L24.591,28.85981l.00788-.00467c.11687-.05988,2.92616-1.44318,2.93233-1.4459A2.688,2.688,0,0,0,28.83171,23.78962Z"/><path fill="url(#6SQWEedlkmZBIUGwkrqy6f)" d="M27.33666,24.52807c-.36176,1.56681-2.14087,2.65565-3.43962,3.4515l-.20164.12336c-.11742.07233-.23484.14351-.35226.21584-.48985.30011-.99748.60966-1.4731.9418q-.15837.11023-.30246.217c-.09845-.17194-.20162-.34273-.31075-.50877.08777-.06405.1791-.12811.274-.19453.49105-.3428,1.00579-.6571,1.50276-.9619.11742-.07117.23367-.14235.35109-.21468l.20282-.12458c1.20979-.74008,2.86555-1.75421,3.17157-3.07783a2.0899,2.0899,0,0,0-.21825-1.38652c.24908.00232.47561.013.65353.02965A2.49992,2.49992,0,0,1,27.33666,24.52807Z"/><path fill="url(#6SQWEedlkmZBIUGwkrqy6b)" d="M40.45405,42.57191c-.50765.64638-1.36755,1.6747-1.36755,1.6747A13.61163,13.61163,0,0,1,37.598,45.70789c-.465.37361-1.17185.30243-2.22035.30243a.50192.50192,0,0,1-.48392-.58829.60389.60389,0,0,1,.48392-.5207,1.50822,1.50822,0,0,0,.88126-1.97359c-.29888-.57411.04151-.96074.60727-.91452A1.149,1.149,0,0,0,38.00243,41.61c.26687-.33683.01778-1.03069.46969-1.256.45308-.22655.66657.41276,1.35211.60966a1.53553,1.53553,0,0,1,.35582.15064A.92781.92781,0,0,1,40.45405,42.57191Z"/><path fill="url(#6SQWEedlkmZBIUGwkrqy6c)" d="M40.45405,42.57191c-.50765.64638-1.36755,1.6747-1.36755,1.6747A13.61163,13.61163,0,0,1,37.598,45.70789c-.465.37361-1.17185.30243-2.22035.30243a.50192.50192,0,0,1-.48392-.58829.28855.28855,0,0,0,.06524.03915,5.66478,5.66478,0,0,0,1.03411.13117,2.5439,2.5439,0,0,0,1.85383-.9376,13.974,13.974,0,0,0,1.62389-1.854,2.6792,2.6792,0,0,0,.71521-1.47547,2.07716,2.07716,0,0,0-.00594-.2111A.92781.92781,0,0,1,40.45405,42.57191Z"/><path fill="url(#6SQWEedlkmZBIUGwkrqy6l)" d="M18.07214,29.43892a3.88676,3.88676,0,0,1,.64166.3432,5.515,5.515,0,0,1,.54781.40667,6.74969,6.74969,0,0,1,.91573.93491,7.58727,7.58727,0,0,1,.72585,1.06318,5.67277,5.67277,0,0,1,.486,1.22529c.11845.43788.21256.89222.32513,1.334a7.98374,7.98374,0,0,0,.43079,1.26259c.173.401.35467.79614.5609,1.17466a7.96606,7.96606,0,0,0,.684,1.09145,1.12783,1.12783,0,0,1-1.7884,1.37465q-.02005-.02616-.03839-.053l-.0404-.05982-5.76633-8.533a1.27177,1.27177,0,0,1,1.53394-1.88962Z"/><path fill="url(#6SQWEedlkmZBIUGwkrqy6m)" d="M24.62047,40.134a20.69533,20.69533,0,0,1-1.82536,1.2679,9.50887,9.50887,0,0,1-3.29967,1.54428.57868.57868,0,0,1-.5373-.47443.88209.88209,0,0,1,.30245-.784c.5278-.50646,1.35568-1.45057,1.18252-2.07326-.17435-.62391.26212-.99392.78281-.76979a1.30951,1.30951,0,0,0,1.19437-.15892c.36057-.22893.23011-1.00458.72-1.13268.48985-.127.56695.542,1.19676.87647a1.44456,1.44456,0,0,1,.40563.312A.9166.9166,0,0,1,24.62047,40.134Z"/><path fill="url(#6SQWEedlkmZBIUGwkrqy6n)" d="M24.62047,40.134a20.69533,20.69533,0,0,1-1.82536,1.2679,9.50887,9.50887,0,0,1-3.29967,1.54428.57868.57868,0,0,1-.5373-.47443.75716.75716,0,0,0,.43055.05814,1.88271,1.88271,0,0,0,.61914-.25621q1.71149-.96071,3.423-1.92147a2.30871,2.30871,0,0,0,1.15761-1.06862c.06168-.16488.08423-.34158.14116-.50883.00354-.01066.00829-.02253.013-.03319A.9166.9166,0,0,1,24.62047,40.134Z"/><g><path fill="url(#6SQWEedlkmZBIUGwkrqy6o)" d="M15.07335,20.19872a2.74,2.74,0,0,1-1.5239-.53281,14.993,14.993,0,0,1-1.31385-.89969c-.4236-.325-.84308-.65715-1.26235-.98969l-.31184-.254c-.10109-.08965-.20517-.174-.30366-.26825a6.33668,6.33668,0,0,1-.57526-.59246l-.28208-.33017A.79741.79741,0,0,1,10.61826,15.202c.10306.08623.21333.15984.31975.24017l.33148.21967c.22139.14571.451.27706.68135.40719l.69938.37569c.23312.12527.47187.24063.70752.3615.47373.23739.94948.47124,1.41834.71715.4711.242.93564.49545,1.38424.77679a1.02745,1.02745,0,0,1-.53739,1.89784Z"/><path fill="url(#6SQWEedlkmZBIUGwkrqy6p)" d="M20.75726,16.11729a4.96691,4.96691,0,0,1-.72785,1.23392,7.961,7.961,0,0,1-.95134,1.0216,9.21529,9.21529,0,0,1-1.1116.8694,6.02451,6.02451,0,0,1-1.31976.67169l-.41537.14362a.89534.89534,0,0,1-.95662-1.44668L15.743,18.093l.45962-.52609c.3061-.351.60324-.71049.90532-1.06533.29633-.36028.59352-.71975.88584-1.0838l.43526-.5492.42574-.55823a1.23845,1.23845,0,0,1,2.13946,1.19853Z"/><path fill="url(#6SQWEedlkmZBIUGwkrqy6q)" d="M25.59531,12.243a7.40552,7.40552,0,0,1,1.75184.10734,12.15007,12.15007,0,0,1,1.67687.4063,13.91134,13.91134,0,0,1,1.62311.62069,8.75255,8.75255,0,0,1,1.55328.89914l.29193.22a.911.911,0,0,1-.75217,1.61545l-.84093-.19326-.84382-.18168c-.56264-.12069-1.1283-.22939-1.6923-.3447-.56593-.10766-1.13156-.21642-1.69885-.3187l-.852-.14907-.85519-.13639a1.26212,1.26212,0,0,1,.10251-2.50478Z"/><path fill="url(#6SQWEedlkmZBIUGwkrqy6r)" d="M33.37407,22.62945s.12622,2.00319.66635,2.028,1.11112,0,1.11112,0Z"/><path fill="url(#6SQWEedlkmZBIUGwkrqy6d)" d="M33.37407,22.62945s.12622,2.00319.66635,2.028,1.11112,0,1.11112,0Z"/><path fill="url(#6SQWEedlkmZBIUGwkrqy6s)" d="M33.436,22.70334a3.50768,3.50768,0,0,0,1.10015,1.75245c1.09471.86421,2.00091,1.17952,1.86731.38308,0,0,.80247,0,.61729-.63,0,0,.84877-.12346.24067-.74267,0,0,.63822-.31139-.07092-.86229,0,0-1.92377-1.46128-2.82949-.83147C33.61182,22.29343,33.50254,22.37884,33.436,22.70334Z"/><path fill="url(#6SQWEedlkmZBIUGwkrqy6t)" d="M33.35151,15.27754a2.1082,2.1082,0,0,1,.53162.7406,4.18763,4.18763,0,0,1,.25372.82777l.20363.84351.1839.84966c.06375.28245.1148.56883.16894.85435l.07982.42862.07051.43151c.09393.57544.17452,1.155.22134,1.74524l.01618.20374a.89447.89447,0,0,1-1.74518.33833L31.264,15.932a1.00615,1.00615,0,0,1,1.61815-1.062Z"/><path fill="url(#6SQWEedlkmZBIUGwkrqy6u)" d="M10.68061,15.23965c.05829-.48141-.63338-3.2892-1.29391-2.273,0,0-.71667-.45813-.81945.30607,0,0-.75425-.22432-.71686.5364,0,0-.75641-.00071-.48749.62412,0,0,.99434,2.1045,2.13511,1.78564C10.319,15.98943,10.64763,15.51206,10.68061,15.23965Z"/><path fill="url(#6SQWEedlkmZBIUGwkrqy6v)" d="M10.68061,15.23965c.05829-.48141-.63338-3.2892-1.29391-2.273,0,0-.71667-.45813-.81945.30607,0,0-.75425-.22432-.71686.5364,0,0-.75641-.00071-.48749.62412,0,0,.99434,2.1045,2.13511,1.78564C10.319,15.98943,10.64763,15.51206,10.68061,15.23965Z"/><path fill="url(#6SQWEedlkmZBIUGwkrqy6w)" d="M9.99176,14.34037c-.36866.06192-.945.5271-.71551,1.09325s.995.40962.995.40962.93357-.78011.72782-1.23052C10.92791,14.457,10.16061,14.312,9.99176,14.34037Z"/><path fill="url(#6SQWEedlkmZBIUGwkrqy6x)" d="M8.30885,14.48675c.28278.421.35691.86655.16557.99506s-.479-.12469-.76176-.54574c-.09848-.14664-.24851-.28842-.31385-.41835-.17607-.35012-.07606-.51091.04864-.59466.13529-.09086.37.03506.59411.24554A1.86408,1.86408,0,0,1,8.30885,14.48675Z"/><path fill="url(#6SQWEedlkmZBIUGwkrqy6y)" d="M9.52647,13.40792c.28279.421.365,1.14094.17362,1.26945s-.50227-.36627-.785-.78732c-.136-.20246-.38135-.44158-.34779-.61731.06913-.36186.1595-.36477.24211-.41231C9.00913,12.74547,9.24369,12.98687,9.52647,13.40792Z"/><path fill="url(#6SQWEedlkmZBIUGwkrqy6y)" d="M8.88831,13.87719c.28278.421.54616,1.0162.35482,1.1447s-.76494-.25829-1.04773-.67934c-.10494-.15625-.28213-.29434-.32571-.44446a.54768.54768,0,0,1,.16581-.5771C8.22684,13.19249,8.60552,13.45613,8.88831,13.87719Z"/><path fill="url(#6SQWEedlkmZBIUGwkrqy6z)" d="M10.25016,13.33c.28278.421.31048.873.11914,1.0015s-.44127-.21139-.72405-.63245-.3788-.90755-.16557-.99506C9.8345,12.55833,9.96738,12.9089,10.25016,13.33Z"/><path fill="url(#6SQWEedlkmZBIUGwkrqy6w)" d="M10.53567,13.68742s-1.62809-.21925-1.67985.40328c-.05753.69185,1.29009.31892,1.29009.31892s.11411,1.096.72287.7245A.99951.99951,0,0,0,10.53567,13.68742Z"/></g><g><path fill="url(#6SQWEedlkmZBIUGwkrqy6A)" d="M22.80507,12.2093l.00143-.00022-.709-4.44764-2.67884.42461.709,4.44764.00143-.00023a1.355,1.355,0,0,0,2.676-.42416Z"/><path fill="url(#6SQWEedlkmZBIUGwkrqy6B)" d="M22.80507,12.2093l.00143-.00022-.709-4.44764-2.67884.42461.709,4.44764.00143-.00023a1.355,1.355,0,0,0,2.676-.42416Z"/><path fill="url(#6SQWEedlkmZBIUGwkrqy6C)" d="M20.59705,3.00958a3.33666,3.33666,0,0,0-3.63049,2.74219c-.16939.78482.11763.93536.11763,1.40643,0,.6321-.18518.74206-.674,1.15252a.34195.34195,0,0,0,.12091.61816.40365.40365,0,0,1,.336.51342c-.09541.803.34472.30226.23387,1.37822-.04374.42452.57815.54312.83562.52771A3.68094,3.68094,0,0,0,21.054,9.95387c.487-.57142.80139-1.025.80139-1.025,1.57737,0,1.9027-1.83078,1.9027-2.40227C23.75812,4.38106,22.62941,3.00958,20.59705,3.00958Z"/><path fill="#805b2a" d="M18.39175,6.59479c-.08585-.02194-.18394-.04089-.2776-.05626-.09489-.01551-.19054-.02789-.28629-.0384q-.28763-.03042-.5767-.0365a.22472.22472,0,0,1,.01014-.44932.25147.25147,0,0,1,.04373.0053q.29869.06495.591.15389c.09725.03016.19383.0622.28954.09752.09669.03606.18829.07212.28727.11918a.11019.11019,0,0,1-.07455.20628Z"/><path fill="#f0af13" d="M18.16209,9.60118c.03642-.039.00569-.12153-.04021-.1086a2.42518,2.42518,0,0,1-1.12465.01439c-.11557-.02282-.20389.127-.19283.27679h0a.23979.23979,0,0,0,.25355.24131A1.51564,1.51564,0,0,0,18.16209,9.60118Z"/><path fill="url(#6SQWEedlkmZBIUGwkrqy6D)" d="M22.39776,7.96541a.55012.55012,0,0,0-.48193-.43447.39607.39607,0,0,0-.30865.17711c-.1267.1685-.23626.45193-.019.6014.06733.04632.15932.07147.18934.15243.03236.08726-.04528.23107-.0863.30916a.88928.88928,0,0,0,.28281-.07957A.648.648,0,0,0,22.39776,7.96541Z"/><path fill="#fff" d="M18.78916,7.61262a3.74277,3.74277,0,0,1-1.17153.39684c-.04942.00836-.035-.00988-.05473-.0441a.31954.31954,0,0,1-.03194-.05245,1.88045,1.88045,0,0,1-.06005-.20831,1.18636,1.18636,0,0,1-.00608-.53673,1.818,1.818,0,0,1,.07906-.26381c.00912-.02432.019-.0494.02964-.0745a1.39652,1.39652,0,0,1,1.24149.69259A.06443.06443,0,0,1,18.78916,7.61262Z"/><path fill="url(#6SQWEedlkmZBIUGwkrqy6E)" d="M18.02361,7.43623a.53333.53333,0,0,1-.46071.52913.13756.13756,0,0,1-.03194-.05245,1.88045,1.88045,0,0,1-.06005-.20831,1.18636,1.18636,0,0,1-.00608-.53673,1.818,1.818,0,0,1,.07906-.26381A.53462.53462,0,0,1,18.02361,7.43623Z"/><path fill="url(#6SQWEedlkmZBIUGwkrqy6F)" d="M17.75827,7.43623a.26929.26929,0,0,1-.26987.26913l-.01749-.00076a1.18636,1.18636,0,0,1-.00608-.53673.11819.11819,0,0,1,.02357-.00153A.26994.26994,0,0,1,17.75827,7.43623Z"/><circle cx="17.758" cy="7.25" r=".116" fill="#fff"/><path fill="#805b2a" d="M18.85058,7.58145a1.34554,1.34554,0,0,0-1.277-.75154C16.68191,6.84872,18.26357,6.93487,18.85058,7.58145Z"/><g><path fill="url(#6SQWEedlkmZBIUGwkrqy6e)" d="M28.25812,8.21038A3.27727,3.27727,0,0,0,28.302,7.14113l-.01909.13615a6.16927,6.16927,0,0,1-1.6922,2.65985c.80683-2.24464.90956-6.41208-2.14944-5.32273a.44054.44054,0,0,1-.10516.03856l-.00249.00172-.00025-.001a.4984.4984,0,0,1-.3916-.07339.60383.60383,0,0,1-.19939-.22192.63175.63175,0,0,1-.01053-.58013c.37937-.68646,3.03058-2.72851,4.60878-.85775C29.67947,4.5078,29.41513,6.52932,28.25812,8.21038Z"/><path fill="url(#6SQWEedlkmZBIUGwkrqy6G)" d="M28.25812,8.21038A3.27727,3.27727,0,0,0,28.302,7.14113c-.01827-.703-.25292-5.69118-4.55962-2.78278a.63175.63175,0,0,1-.01053-.58013c.37937-.68646,3.03058-2.72851,4.60878-.85775C29.67947,4.5078,29.41513,6.52932,28.25812,8.21038Z"/><path fill="url(#6SQWEedlkmZBIUGwkrqy6H)" d="M24.16337,3.57529a.64325.64325,0,0,0-.3977.05036l-.0001-.00017-.00208.00121a.65039.65039,0,0,0-.10192.06039l-.31135.1844a.65021.65021,0,0,0-.13527.08012l-.001.00061.00006.00012a.64624.64624,0,0,0,.61754,1.11916l.0022.004.02366-.01358a.64958.64958,0,0,0,.13545-.07777l.35717-.205.00079-.00044.00349-.002,0-.00009a.64692.64692,0,0,0-.19088-1.20123Z"/><path fill="url(#6SQWEedlkmZBIUGwkrqy6I)" d="M24.16337,3.57529a.64325.64325,0,0,0-.3977.05036l-.0001-.00017-.00208.00121a.65039.65039,0,0,0-.10192.06039l-.31135.1844a.65021.65021,0,0,0-.13527.08012l-.001.00061.00006.00012a.64624.64624,0,0,0,.61754,1.11916l.0022.004.02366-.01358a.64958.64958,0,0,0,.13545-.07777l.35717-.205.00079-.00044.00349-.002,0-.00009a.64692.64692,0,0,0-.19088-1.20123Z"/><path fill="url(#6SQWEedlkmZBIUGwkrqy6J)" d="M16.69743,5.22137c1.51468.51623,2.31353-.57265,3.43761.73935.86548,1.01015.18582,1.45987.73332,2.29024.04106.06227.13548.09911.14577.02523.35132-2.52214,2.65666-.24512.841.65269,0,0-.0537.25216-.12292.49467-.112.39245.56574.92825.745,1.06313.13826.104.13252-.32475.20964-.70437.15431-.75956,1.333-.16245,1.87189-3.36054A3.46823,3.46823,0,0,0,20.07,2.68775c-1.84033-1.06022-4.02684.5635-4.02684,1.84869C16.04318,4.79083,16.34911,5.10266,16.69743,5.22137Z"/></g></g><path fill="url(#6SQWEedlkmZBIUGwkrqy6g)" d="M18.91221,18.91434c.1166.1227.35269.03848.45234-.15958a16.28127,16.28127,0,0,1,2.20578-3.25305,1.8218,1.8218,0,0,0,.13743-2.51754h0a1.8218,1.8218,0,0,0-2.45236.58555,18.80833,18.80833,0,0,1-2.40252,2.87873.43268.43268,0,0,0-.03264.59792A14.04439,14.04439,0,0,1,18.91221,18.91434Z"/><path fill="url(#6SQWEedlkmZBIUGwkrqy6K)" d="M28.72657,23.59583c-1.17778.28824-3.34-.23246-4.17025.21353a4.83407,4.83407,0,0,1-2.41129.77686l.53966-.89077a10.94673,10.94673,0,0,1,1.88824-.87885l.61321-.27046A2.79921,2.79921,0,0,1,28.72657,23.59583Z"/><path fill="url(#6SQWEedlkmZBIUGwkrqy6L)" d="M28.03055,22.28785a10.32544,10.32544,0,0,1-1.40734-3.68622,43.311,43.311,0,0,0-.775-4.70916,3.72392,3.72392,0,0,0-3.54094-2.6378,3.29057,3.29057,0,0,0-2.77733,2.06243l0-.00012-.00077.00162c-.04275.08253-.08414.16859-.12471.25665a21.02837,21.02837,0,0,1-1.27083,2.24321,1.25267,1.25267,0,0,0,.63519,1.9572,1.53766,1.53766,0,0,0,.67128.12613,26.1637,26.1637,0,0,0,1.91213,3.50611c.33228.54909.29534,2.702.41509,2.9279.46014.86778,1.97648-.763,2.6872-1.08137a7.65351,7.65351,0,0,1,3.09021-.15891C27.981,23.25443,28.43606,22.81423,28.03055,22.28785Z"/><path fill="url(#6SQWEedlkmZBIUGwkrqy6M)" d="M28.03055,22.28785a10.32544,10.32544,0,0,1-1.40734-3.68622,43.311,43.311,0,0,0-.775-4.70916,3.72392,3.72392,0,0,0-3.54094-2.6378,3.29057,3.29057,0,0,0-2.77733,2.06243l0-.00012-.00077.00162c-.04275.08253-.08414.16859-.12471.25665a21.02837,21.02837,0,0,1-1.27083,2.24321,1.25267,1.25267,0,0,0,.63519,1.9572,1.53766,1.53766,0,0,0,.67128.12613,26.1637,26.1637,0,0,0,1.91213,3.50611c.33228.54909.29534,2.702.41509,2.9279.46014.86778,1.97648-.763,2.6872-1.08137a7.65351,7.65351,0,0,1,3.09021-.15891C27.981,23.25443,28.43606,22.81423,28.03055,22.28785Z"/><g><path fill="#3f1980" d="M26.35283,16.5929c-2.43095-.75248-3.111-1.98061-3.32052-2.74305l-.00119-.00354a3.01413,3.01413,0,0,1-.08539-.446l3.003.92557c.0972.43446.18545.9125.26584,1.39615C26.26416,16.01038,26.30987,16.30372,26.35283,16.5929Z" opacity=".002"/><path fill="#3f1980" d="M26.34523,16.54392c-2.41861-.73992-3.10263-1.94252-3.31292-2.69407l-.00119-.00354a2.77456,2.77456,0,0,1-.08539-.446l3.00286.9248c.0912.40753.174.856.24937,1.30971C26.25091,15.934,26.29961,16.24072,26.34523,16.54392Z" opacity=".004"/><path fill="#3f1980" d="M26.33762,16.49494c-2.40625-.72736-3.09426-1.90442-3.30531-2.64509l-.00119-.00354a2.56856,2.56856,0,0,1-.08539-.446l3.00272.924c.0852.3806.16257.79948.2329,1.22326C26.23765,15.85759,26.28936,16.17772,26.33762,16.49494Z" opacity=".005"/><path fill="#3f1980" d="M26.33,16.446c-2.39391-.7148-3.08589-1.86633-3.29771-2.59611l-.00119-.00354a2.39121,2.39121,0,0,1-.08539-.446l3.00258.92327c.0792.35366.15113.743.21644,1.13681C26.22439,15.78119,26.2791,16.11471,26.33,16.446Z" opacity=".007"/><path fill="#3f1980" d="M26.32242,16.397c-2.38157-.70224-3.07752-1.82824-3.29011-2.54714l-.00119-.00354a2.2385,2.2385,0,0,1-.08539-.446l3.00244.9225c.0732.32673.13968.68645.2,1.05037C26.21114,15.7048,26.26884,16.05171,26.32242,16.397Z" opacity=".009"/><path fill="#3f1980" d="M26.31481,16.348c-2.36921-.68968-3.06914-1.79015-3.2825-2.49816l-.00119-.00354a2.1029,2.1029,0,0,1-.08539-.446l3.0023.92173c.0672.2998.12824.62994.18351.96393C26.19788,15.6284,26.25859,15.98871,26.31481,16.348Z" opacity=".011"/><path fill="#3f1980" d="M26.30721,16.299c-2.35687-.67712-3.06078-1.752-3.2749-2.44918l-.00119-.00354a1.98349,1.98349,0,0,1-.08539-.446l3.00216.921c.0612.27286.1168.57342.167.87748C26.18463,15.552,26.24833,15.9257,26.30721,16.299Z" opacity=".012"/><path fill="#3f1980" d="M26.29961,16.25005c-2.34453-.66456-3.05241-1.714-3.2673-2.4002l-.00119-.00354a1.87654,1.87654,0,0,1-.08539-.446l3.002.9202c.0552.24593.10536.51691.15057.791C26.17137,15.47561,26.23807,15.8627,26.29961,16.25005Z" opacity=".014"/><path fill="#3f1980" d="M26.292,16.20107c-2.33217-.652-3.044-1.67586-3.25969-2.35122l-.00119-.00354a1.7812,1.7812,0,0,1-.08539-.446l3.00188.91943c.0492.219.09392.4604.13411.70459C26.15812,15.39921,26.22782,15.7997,26.292,16.20107Z" opacity=".016"/><path fill="#3f1980" d="M26.2844,16.1521c-2.31983-.63944-3.03567-1.63777-3.25209-2.30225l-.00119-.00354a1.69513,1.69513,0,0,1-.08539-.446l3.00174.91867c.0432.19206.08247.40388.11764.61814C26.14486,15.32282,26.21756,15.73669,26.2844,16.1521Z" opacity=".018"/><path fill="#3f1980" d="M26.27679,16.10312c-2.30747-.62688-3.02729-1.59968-3.24448-2.25327l-.00119-.00354a1.61673,1.61673,0,0,1-.08539-.446l3.0016.9179c.0372.16513.071.34736.10118.5317C26.13161,15.24642,26.2073,15.67369,26.27679,16.10312Z" opacity=".019"/><path fill="#3f1980" d="M26.26919,16.05414c-2.29513-.61432-3.01892-1.56158-3.23688-2.20429l-.00119-.00354a1.546,1.546,0,0,1-.08539-.446l3.00146.91713c.0312.1382.05959.29085.08471.44526C26.11835,15.17,26.19705,15.61069,26.26919,16.05414Z" opacity=".021"/><path fill="#3f1980" d="M26.26159,16.00516c-2.28279-.60176-3.01055-1.52349-3.22928-2.15531l-.00119-.00354a1.48082,1.48082,0,0,1-.08539-.446l3.00132.91637c.0252.11126.04815.23433.06824.35881C26.10509,15.09363,26.18679,15.54768,26.26159,16.00516Z" opacity=".023"/><path fill="#3f1980" d="M26.254,15.95618c-2.27043-.58919-3.00218-1.48539-3.22167-2.10633l-.00119-.00354a1.42121,1.42121,0,0,1-.08539-.446l3.00118.9156c.01919.08433.03671.17782.05178.27237C26.09184,15.01724,26.17653,15.48468,26.254,15.95618Z" opacity=".025"/><path fill="#3f1980" d="M26.24638,15.9072c-2.25809-.57663-2.99381-1.44729-3.21407-2.05735l-.00119-.00354a1.366,1.366,0,0,1-.08539-.446l3.001.91483c.01318.0574.02525.12131.0353.18593C26.07858,14.94084,26.16628,15.42168,26.24638,15.9072Z" opacity=".026"/><path fill="#3f1980" d="M26.23878,15.85823c-2.24574-.56408-2.98544-1.40921-3.20647-2.00838l-.00119-.00354a1.31538,1.31538,0,0,1-.08539-.446l3.00091.91407c.00718.03046.01381.06479.01884.09947C26.06533,14.86445,26.156,15.35867,26.23878,15.85823Z" opacity=".028"/><path fill="#3f1980" d="M26.23117,15.80925c-2.23339-.55152-2.97706-1.37111-3.19886-1.9594l-.00119-.00354a1.26842,1.26842,0,0,1-.08539-.446l3.00077.9133.00237.013C26.05207,14.78805,26.14576,15.29567,26.23117,15.80925Z" opacity=".03"/></g><path fill="url(#6SQWEedlkmZBIUGwkrqy6N)" d="M27.18306,23.03841c-.17791-.01662-.40444-.02733-.65353-.02965a6.93835,6.93835,0,0,0-.3914-.701c-.06049-.09729-.12217-.19569-.185-.29414a7.43431,7.43431,0,0,1-.70454-1.29641,10.71474,10.71474,0,0,1-.50289-3.0209,8.00424,8.00424,0,0,0-.70929-3.359l.51952-.28586a8.57556,8.57556,0,0,1,.78162,3.6045,10.18474,10.18474,0,0,0,.46732,2.85371,6.75427,6.75427,0,0,0,.65,1.18729c.13046.20635.26568.421.39021.64163A5.06642,5.06642,0,0,1,27.18306,23.03841Z"/><path fill="url(#6SQWEedlkmZBIUGwkrqy6O)" d="M27.31451,15.43a.23647.23647,0,0,1-.34654.186,9.19738,9.19738,0,0,0-2.80024-.90737,1.50762,1.50762,0,0,1-1.213-1.75335h0A1.50761,1.50761,0,0,1,24.708,11.74216a10.48783,10.48783,0,0,0,2.75188.50124.35805.35805,0,0,1,.2881.41641A18.79244,18.79244,0,0,0,27.31451,15.43Z"/></svg>