<svg xmlns="http://www.w3.org/2000/svg" xmlns:xlink="http://www.w3.org/1999/xlink" viewBox="0,0,256,256" width="50px" height="50px"><g fill="none" fill-rule="nonzero" stroke="none" stroke-width="1" stroke-linecap="butt" stroke-linejoin="none" stroke-miterlimit="10" stroke-dasharray="" stroke-dashoffset="0" font-family="none" font-weight="none" font-size="none" text-anchor="none" style="mix-blend-mode: normal"><path transform="scale(5.12,5.12)" d="M38.96094,7.43555c0,2.485 -2.01491,4.50195 -4.50391,4.50195c-2.484,0 -4.49609,-2.01695 -4.49609,-4.50195c0,-0.46763 0.0901,-0.90983 0.22266,-1.33398c-5.25191,2.53199 -8.22266,-1.07227 -8.22266,-1.07227c4.13807,-3.81701 7.51276,-1.29521 8.75,-0.07617c0.80568,-1.21349 2.18078,-2.01562 3.74609,-2.01562c2.489,0 4.50391,2.01505 4.50391,4.49805zM20.4707,10.00586l0.00977,-0.00195l8.16406,1.78125l2.50781,1.39649l0.00195,0.00391c1.09668,0.47548 1.80645,1.55663 1.80664,2.75195c-0.00115,0.51932 -0.1371,1.02945 -0.39453,1.48047l0.00195,0.00586l-4.66992,9.23242l5.40234,4.78906l0.00586,0.01758c0.41546,0.37787 0.65291,0.91301 0.6543,1.47461c-0.00145,0.09223 -0.00928,0.18424 -0.02344,0.27539l0.00586,0.01367l-2.02539,10.67188h-0.00195c-0.22165,1.18157 -1.2529,2.03807 -2.45508,2.03906c-1.38071,0 -2.5,-1.11929 -2.5,-2.5c0.0001,-0.16462 0.01645,-0.32883 0.04883,-0.49023v-0.00586c0.00128,-0.00586 0.00258,-0.01172 0.00391,-0.01758l1.70117,-8.76172l-7.52344,-4.64062c-1.36467,-0.67316 -2.2292,-2.06232 -2.23047,-3.58398c0.00101,-0.83951 0.26613,-1.65743 0.75781,-2.33789v-0.00195l4.93359,-8.04101l-4.41016,-1.40039l-5.99414,4.31055v-0.00195c-0.35994,0.30429 -0.81578,0.47169 -1.28711,0.47266c-1.10457,0 -2,-0.89543 -2,-2c0.0005,-0.69619 0.363,-1.34203 0.95703,-1.70508l6.92969,-4.97266l0.0293,-0.00391c0.32322,-0.20809 0.69957,-0.31862 1.08398,-0.31836c0.17216,0.00075 0.34349,0.02373 0.50977,0.06836zM35.96094,22.9375h6c1.105,0 2,0.895 2,2c0,1.105 -0.895,2 -2,2h-7c-0.801,0 -1.48859,-0.4743 -1.80859,-1.1543l-0.01172,-0.00781l-1.20898,-2.66602l2.24219,-4.42773zM20.00781,31.14063c0.007,0.006 0.60659,0.37377 1.43359,0.88477l-2.28516,3.22461c-0.75,1.058 -1.96667,1.6875 -3.26367,1.6875h-8.43164c-1.381,0 -2.5,-1.119 -2.5,-2.5c0,-1.381 1.119,-2.5 2.5,-2.5h7.74023l2.27734,-3.58594c0.514,1.155 1.3853,2.14106 2.5293,2.78906z" id="strokeMainSVG" fill="#1d1d1d" stroke="#1d1d1d" stroke-linejoin="round"></path><g transform="scale(5.12,5.12)" fill="#92d695" stroke="none" stroke-linejoin="miter"><path d="M34.45703,2.9375c-1.56531,0 -2.94042,0.80213 -3.74609,2.01563c-1.23724,-1.21904 -4.61193,-3.74084 -8.75,0.07617c0,0 2.97075,3.60426 8.22266,1.07227c-0.13255,0.42415 -0.22266,0.86636 -0.22266,1.33398c0,2.485 2.01209,4.50195 4.49609,4.50195c2.489,0 4.50391,-2.01695 4.50391,-4.50195c0,-2.483 -2.01491,-4.49805 -4.50391,-4.49805zM19.96094,9.9375c-0.38442,-0.00026 -0.76076,0.11027 -1.08398,0.31836l-0.0293,0.00391l-6.92969,4.97266c-0.59403,0.36305 -0.95653,1.00889 -0.95703,1.70508c0,1.10457 0.89543,2 2,2c0.47133,-0.00097 0.92717,-0.16836 1.28711,-0.47266v0.00195l5.99414,-4.31055l4.41016,1.40039l-4.93359,8.04102v0.00195c-0.49168,0.68046 -0.7568,1.49838 -0.75781,2.33789c0.00126,1.52167 0.8658,2.91083 2.23047,3.58398l7.52344,4.64063l-1.70117,8.76172c-0.00132,0.00585 -0.00263,0.01171 -0.00391,0.01758v0.00586c-0.03238,0.16141 -0.04873,0.32561 -0.04883,0.49023c0,1.38071 1.11929,2.5 2.5,2.5c1.20218,-0.00099 2.23343,-0.85749 2.45508,-2.03906h0.00195l2.02539,-10.67188l-0.00586,-0.01367c0.01415,-0.09115 0.02199,-0.18316 0.02344,-0.27539c-0.00139,-0.5616 -0.23884,-1.09674 -0.6543,-1.47461l-0.00586,-0.01758l-5.40234,-4.78906l4.66992,-9.23242l-0.00195,-0.00586c0.25743,-0.45102 0.39338,-0.96115 0.39453,-1.48047c-0.00019,-1.19532 -0.70996,-2.27647 -1.80664,-2.75195l-0.00195,-0.00391l-2.50781,-1.39649l-8.16406,-1.78125l-0.00977,0.00195c-0.16627,-0.04463 -0.33761,-0.06761 -0.50977,-0.06836zM34.17383,18.68164l-2.24219,4.42773l1.20898,2.66602l0.01172,0.00781c0.32,0.68 1.00759,1.1543 1.80859,1.1543h7c1.105,0 2,-0.895 2,-2c0,-1.105 -0.895,-2 -2,-2h-6zM17.47852,28.35156l-2.27734,3.58594h-7.74023c-1.381,0 -2.5,1.119 -2.5,2.5c0,1.381 1.119,2.5 2.5,2.5h8.43164c1.297,0 2.51367,-0.6295 3.26367,-1.6875l2.28516,-3.22461c-0.827,-0.511 -1.42659,-0.87877 -1.43359,-0.88477c-1.144,-0.648 -2.0153,-1.63406 -2.5293,-2.78906z"></path></g></g></svg>