<svg xmlns="http://www.w3.org/2000/svg" xmlns:xlink="http://www.w3.org/1999/xlink" viewBox="0,0,256,256" width="256px" height="256px"><defs><radialGradient cx="20.792" cy="21.078" r="21.221" gradientUnits="userSpaceOnUse" id="color-1"><stop offset="0" stop-color="#55a1db"></stop><stop offset="0.575" stop-color="#2d5bc4"></stop><stop offset="0.696" stop-color="#294caf"></stop><stop offset="0.802" stop-color="#253d99"></stop></radialGradient><radialGradient cx="23.734" cy="23.877" r="14.729" gradientUnits="userSpaceOnUse" id="color-2"><stop offset="0" stop-color="#89c421"></stop><stop offset="1" stop-color="#639925"></stop></radialGradient><radialGradient cx="25.533" cy="23.918" r="13.086" gradientUnits="userSpaceOnUse" id="color-3"><stop offset="0" stop-color="#8de019"></stop><stop offset="0.105" stop-color="#92e01b"></stop><stop offset="0.228" stop-color="#a0e122"></stop><stop offset="0.359" stop-color="#b7e22d"></stop><stop offset="0.495" stop-color="#d8e43d"></stop><stop offset="0.536" stop-color="#e3e542"></stop><stop offset="0.922" stop-color="#e7982b"></stop></radialGradient><radialGradient cx="356.14538" cy="294.30801" r="346.47869" gradientUnits="userSpaceOnUse" id="color-4"><stop offset="0" stop-color="#89c421"></stop><stop offset="1" stop-color="#639925"></stop></radialGradient><radialGradient cx="52.69485" cy="34.25028" r="26.62364" gradientUnits="userSpaceOnUse" id="color-5"><stop offset="0" stop-color="#89c421"></stop><stop offset="1" stop-color="#639925"></stop></radialGradient><radialGradient cx="85.87964" cy="47.93169" r="64.14553" gradientUnits="userSpaceOnUse" id="color-6"><stop offset="0" stop-color="#89c421"></stop><stop offset="1" stop-color="#639925"></stop></radialGradient><radialGradient cx="18.725" cy="16.333" r="10.159" gradientUnits="userSpaceOnUse" id="color-7"><stop offset="0" stop-color="#ccff00"></stop><stop offset="0.564" stop-color="#a6e520"></stop><stop offset="1" stop-color="#8de019"></stop></radialGradient><radialGradient cx="25.492" cy="10.261" r="18.092" gradientUnits="userSpaceOnUse" id="color-8"><stop offset="0" stop-color="#8de019"></stop><stop offset="0.454" stop-color="#b6d81a"></stop><stop offset="1" stop-color="#edce1c"></stop></radialGradient><radialGradient cx="13.389" cy="18.909" r="9.272" gradientUnits="userSpaceOnUse" id="color-9"><stop offset="0" stop-color="#fde169"></stop><stop offset="1" stop-color="#fde169" stop-opacity="0"></stop></radialGradient><radialGradient cx="28.232" cy="7.072" r="7.956" gradientUnits="userSpaceOnUse" id="color-10"><stop offset="0.006" stop-color="#f0b335"></stop><stop offset="1" stop-color="#efaf30" stop-opacity="0"></stop></radialGradient><radialGradient cx="18.725" cy="16.333" r="10.159" gradientUnits="userSpaceOnUse" id="color-11"><stop offset="0" stop-color="#ccff00"></stop><stop offset="0.564" stop-color="#a6e520"></stop><stop offset="1" stop-color="#8de019"></stop></radialGradient><radialGradient cx="11.917" cy="11.488" r="34.816" gradientUnits="userSpaceOnUse" id="color-12"><stop offset="0.513" stop-color="#485463" stop-opacity="0"></stop><stop offset="0.833" stop-color="#293648" stop-opacity="0.714"></stop><stop offset="1" stop-color="#1d2a3d"></stop></radialGradient><radialGradient cx="10.568" cy="13.757" r="34.816" gradientUnits="userSpaceOnUse" id="color-13"><stop offset="0.806" stop-color="#485463" stop-opacity="0"></stop><stop offset="0.842" stop-color="#384555" stop-opacity="0.363"></stop><stop offset="0.887" stop-color="#293648" stop-opacity="0.715"></stop><stop offset="0.931" stop-color="#202d40" stop-opacity="0.928"></stop><stop offset="0.972" stop-color="#1d2a3d"></stop></radialGradient><radialGradient cx="31.544" cy="39.047" r="31.432" gradientUnits="userSpaceOnUse" id="color-14"><stop offset="0.752" stop-color="#ffffff" stop-opacity="0"></stop><stop offset="0.774" stop-color="#ffffff" stop-opacity="0.031"></stop><stop offset="0.806" stop-color="#ffffff" stop-opacity="0.117"></stop><stop offset="0.847" stop-color="#ffffff" stop-opacity="0.257"></stop><stop offset="0.893" stop-color="#ffffff" stop-opacity="0.452"></stop><stop offset="0.945" stop-color="#ffffff" stop-opacity="0.701"></stop><stop offset="1" stop-color="#ffffff"></stop></radialGradient><radialGradient cx="19.76" cy="20.537" r="17.614" gradientUnits="userSpaceOnUse" id="color-15"><stop offset="0" stop-color="#ffffff" stop-opacity="0.8"></stop><stop offset="0.103" stop-color="#ffffff" stop-opacity="0.716"></stop><stop offset="0.317" stop-color="#ffffff" stop-opacity="0.5"></stop><stop offset="0.622" stop-color="#ffffff" stop-opacity="0.157"></stop><stop offset="0.753" stop-color="#ffffff" stop-opacity="0"></stop></radialGradient><radialGradient cx="15.696" cy="29.122" r="34.816" gradientUnits="userSpaceOnUse" id="color-16"><stop offset="0.613" stop-color="#485463" stop-opacity="0"></stop><stop offset="0.629" stop-color="#465261" stop-opacity="0.05"></stop><stop offset="0.874" stop-color="#283547" stop-opacity="0.736"></stop><stop offset="1" stop-color="#1d2a3d"></stop></radialGradient></defs><g transform="translate(-44.8,-44.8) scale(1.35,1.35)"><g fill="none" fill-rule="nonzero" stroke="none" stroke-width="1" stroke-linecap="butt" stroke-linejoin="miter" stroke-miterlimit="10" stroke-dasharray="" stroke-dashoffset="0" font-family="none" font-weight="none" font-size="none" text-anchor="none" style="mix-blend-mode: normal"><g transform="scale(5.33333,5.33333)"><g><path d="M41.546,24c0.00178,9.23525 -7.1556,16.89099 -16.37009,17.50993c-9.21448,0.61894 -17.33142,-6.01083 -18.56475,-15.16336c-1.23333,-9.15252 4.83919,-17.69436 13.88883,-19.53657c0.116,-0.019 0.241,-0.048 0.356,-0.068c0.7551,-0.14308 1.51931,-0.23297 2.287,-0.269c0.278,-0.009 0.567,-0.019 0.855,-0.019c0.288,0 0.567,0.01 0.846,0.019c0.249,0.01 0.509,0.029 0.759,0.049c0.49,0.048 0.98,0.1 1.451,0.192c0.471,0.092 0.96,0.182 1.431,0.307c6.5331,1.73682 11.48927,7.06944 12.744,13.712c0.009,0.048 0.019,0.106 0.029,0.154c0.01,0.048 0.019,0.105 0.028,0.153c0.16998,0.97757 0.25696,1.96777 0.26,2.96z" fill="#253d99"></path><path d="M41.289,24c-0.00069,9.09948 -7.05451,16.64096 -16.13364,17.24904c-9.07914,0.60808 -17.07563,-5.92539 -18.28977,-14.94351c-1.21413,-9.01812 4.76973,-17.4338 13.68641,-19.24854c1.13459,-0.23222 2.28989,-0.34816 3.448,-0.346c8.36543,0.00015 15.52985,5.99156 17.01,14.225c0.18618,1.0107 0.27957,2.0363 0.279,3.064z" fill="url(#color-1)"></path><path d="M25.127,39.274v-0.925l0.371,-0.37v-0.703l0.499,-0.5v-0.788l0.465,-0.464v-1.161l0.5,-0.501v-1.876l-0.708,-0.708h-0.831l-0.642,-0.643v-0.78l-1.205,-1.205v-0.574l0.422,-0.421v-0.767l0.98,-0.98v-0.587l-0.483,-0.482v-0.479l0.209,-0.208h0.565l0.3,-0.3h0.335l0.538,-0.538h0.392l0.335,0.335h0.547l0.392,0.392h1.864l1.274,1.274h1.272l0.734,0.734v0.836h0.911l0.614,0.614h1.165l0.9,0.899v0.777l-1.411,1.411v1.134l-1.155,1.155h-0.89l-1.058,1.058v0.455l-1.469,1.47h-0.836l-0.635,0.635h-0.929l-0.573,0.573v0.399l-0.521,0.521h-0.521l-0.255,0.256l-0.363,0.363v0.588l0.273,0.273v0.35h-0.963z" fill="url(#color-2)"></path><path d="M24.961,39.108v-0.925l0.37,-0.37v-0.703l0.5,-0.5v-0.788l0.465,-0.465v-1.16l0.5,-0.501v-1.876l-0.708,-0.708h-0.831l-0.642,-0.643v-0.78l-1.205,-1.205v-0.574l0.422,-0.421v-0.767l0.98,-0.98v-0.587l-0.483,-0.482v-0.479l0.209,-0.208h0.565l0.3,-0.3h0.335l0.538,-0.538h0.392l0.335,0.334h0.547l0.392,0.393h1.864l1.274,1.274h1.272l0.734,0.734v0.836h0.911l0.614,0.613h1.165l0.899,0.9v0.777l-1.41,1.411v1.134l-1.155,1.155h-0.89l-1.058,1.058v0.455l-1.469,1.47h-0.836l-0.635,0.635h-0.929l-0.573,0.573v0.399l-0.521,0.521h-0.521l-0.256,0.256l-0.362,0.363v0.588l0.273,0.273v0.35h-0.963z" fill="url(#color-3)"></path><path d="M30.745,12.844h-0.49l-0.365,-0.375v-0.538l-0.442,-0.432h-0.807l-0.519,-0.519v-0.365l-0.336,-0.336h-0.509l-0.317,0.317h-0.375l-0.26,-0.26h-0.586l-0.307,-0.307h-0.769l-0.24,0.25v0.307l0.288,0.288v0.519l-0.336,0.336v0.721l-0.24,0.24h-0.318l-0.336,-0.336v-0.432l-0.24,-0.231h-0.384l-0.308,-0.317h-0.413l-0.375,-0.384h-0.519l-0.432,-0.423v-0.2l0.49,-0.49h0.8l0.385,-0.384h0.3l0.259,0.249h0.3l0.163,0.173h0.193l0.24,-0.249v-0.266l-0.24,-0.24v-0.352l0.192,-0.182v-0.308l0.144,-0.144h0.413l0.269,0.269v0.231l0.394,0.394v0.2l0.279,0.278h0.394l0.547,0.49h0.356l0.259,-0.25h0.279l0.336,-0.336v-0.45l-0.211,-0.212h-0.401l-0.35,-0.354h-0.653l-0.547,-0.548h-0.65l-0.25,-0.26h-0.394v-0.4l0.336,-0.336l0.4,-0.414c-0.279,-0.009 -0.567,-0.019 -0.846,-0.019c-0.279,0 -0.577,0.01 -0.855,0.019c-0.41745,0.12216 -0.84104,0.2223 -1.269,0.3l0.328,0.324v0.211l0.106,0.106v0.327l0.2,0.23l0.23,0.221h0.327l0.2,0.2v0.305l-0.106,0.105h-0.3l-0.211,-0.221h-0.269l-0.289,-0.3v-0.302l-0.211,-0.211v-0.193l-0.163,-0.163l-0.027,0.163h-0.358l-0.163,0.164l0.317,0.317v0.461l-0.461,0.452h-1.522l-0.573,-0.572h-0.942l-0.461,0.471h-1.317l-0.221,-0.231c-0.96086,0.5009 -1.87138,1.09295 -2.719,1.768v0.663l0.384,0.394v0.375l-0.336,0.336v0.524l-0.3,0.288v0.4l0.269,0.269v0.471l-0.509,0.5v0.394l-0.365,0.365v0.856l0.374,0.374v0.635l0.462,0.461v0.826l0.394,0.394v0.509l0.615,0.615v0.663l0.557,0.558l0.231,-0.231v-0.3l-0.318,-0.317v-0.53l-0.413,-0.413v-0.187l-0.2,-0.2v-0.374l-0.222,-0.231v-0.307l0.154,-0.164h0.116l0.211,0.212v0.288l0.115,0.115v0.308l0.279,0.278v0.25l0.3,0.3v0.212l0.461,0.461h0.336v0.3l0.289,0.288v0.5l0.355,0.355h0.471l0.394,0.394h0.48l0.212,0.221h0.951l0.183,-0.183h0.336l0.259,0.25v0.346l0.3,0.308h1.259l0.288,0.288l0.164,0.163h0.211l0.2,0.2v0.3l0.221,0.231h0.125l0.288,0.288h0.346l0.279,0.288h0.4l0.212,-0.221v-0.432l-0.289,-0.289h-0.413l-0.211,-0.2h-0.372l-0.231,-0.221v-0.49l0.346,-0.346v-0.394l-0.278,-0.279h-1.25l-0.221,-0.231v-0.288l0.2,-0.2h0.221l0.24,-0.24v-0.584l-0.163,-0.164l-0.086,0.164h-0.26l-0.2,-0.2h-0.355l-0.24,0.25v0.317l-0.25,0.25v0.249l-0.269,0.26h-0.961l-0.269,-0.26h-0.184v-0.4l-0.355,-0.356v-0.269l-0.269,-0.269v-0.384l0.355,-0.356v-0.365l0.288,-0.288h0.366l0.355,-0.356h0.855l0.231,-0.221h0.346l0.288,0.289h0.615l0.269,-0.279h0.394l0.211,0.221h0.385v0.327l0.269,0.269v0.413l0.413,0.413h0.452l0.307,-0.3v-0.48l-0.317,-0.317h-0.211l-0.317,-0.308v-0.576l0.278,-0.269h0.5l0.624,-0.625h0.3l0.241,-0.24v-0.673l0.73,-0.72h0.269l0.442,-0.442v-0.394l0.288,-0.279h0.663l0.365,0.355h0.6l0.394,-0.393v-0.2l-0.365,-0.365h-0.557l-0.337,-0.337h-0.4l-0.221,-0.211v-0.288l0.192,-0.2h0.674l0.308,0.307h0.7l0.336,0.337v0.355l0.317,0.308h0.769l0.442,-0.442v-0.26zM24.445,14.432l-0.279,0.279h-0.375l-0.153,-0.154v-0.105l-0.145,-0.154v-0.164l-0.166,-0.166l-0.05,0.142l-0.12,-0.12v-0.105l-0.166,-0.166l-0.042,0.166h0.093l-0.115,0.115l-0.318,0.317v0.567l-0.355,0.365h-0.327l-0.2,-0.2v-0.432l0.327,-0.327v-0.2l-0.221,-0.221h-0.259l-0.3,0.289h-0.356l-0.25,-0.25v-0.3l0.332,-0.319h0.413l0.913,0.009l0.192,0.193h0.577l0.317,0.317h0.634l0.4,0.4z" fill="url(#color-4)"></path><path d="M27.438,21.142h-0.798l-0.175,-0.175h-0.178l-0.005,0.521l0.322,0.322h0.721v0.012h0.152l0.239,-0.239v-0.164z" fill="url(#color-5)"></path><path d="M25.464,20.747h-0.383l-0.22,-0.22h-0.531l-0.297,-0.296h-1.359l-0.266,0.265v0.258l-0.166,0.036l0.166,0.167h0.511l0.194,-0.194h0.46l0.184,0.184h0.307l0.102,-0.102h0.235l0.193,0.193v0.203l-0.298,0.298v0.248l0.228,0.227h0.353l0.24,-0.24v-0.303h0.28l0.3,-0.3v-0.192z" fill="url(#color-6)"></path><path d="M22.242,20.33l0.266,-0.266h1.359l0.297,0.297h0.531l0.22,0.22h0.383l0.233,0.232v0.192l-0.301,0.3h-0.279v0.303l-0.241,0.24h-0.352l-0.228,-0.227v-0.248l0.298,-0.298v-0.203l-0.194,-0.194h-0.234l-0.103,0.103h-0.306l-0.184,-0.185h-0.46l-0.194,0.194h-0.511z" fill="url(#color-7)"></path><path d="M30.582,12.681h-0.49l-0.365,-0.375v-0.538l-0.442,-0.432h-0.807l-0.519,-0.519v-0.366l-0.336,-0.336h-0.51l-0.317,0.317h-0.375l-0.259,-0.259h-0.586l-0.308,-0.308h-0.768l-0.241,0.25v0.308l0.289,0.288v0.519l-0.337,0.336v0.721l-0.24,0.24h-0.317l-0.336,-0.336v-0.433l-0.24,-0.23h-0.385l-0.307,-0.317h-0.413l-0.375,-0.385h-0.519l-0.432,-0.423v-0.2l0.49,-0.49h0.8l0.384,-0.385h0.3l0.26,0.25h0.3l0.163,0.173h0.192l0.24,-0.25v-0.26l-0.247,-0.241v-0.355l0.192,-0.183v-0.307l0.144,-0.144h0.414l0.269,0.269v0.231l0.394,0.393v0.2l0.278,0.279h0.394l0.548,0.49h0.356l0.259,-0.25h0.279l0.336,-0.336v-0.45l-0.211,-0.211h-0.394l-0.346,-0.356h-0.654l-0.547,-0.547h-0.654l-0.25,-0.26h-0.394v-0.4l0.337,-0.337l0.249,-0.259c-0.172,-0.01 -0.355,-0.01 -0.528,-0.01c-0.76501,-0.00277 -1.52926,0.04869 -2.287,0.154l0.327,0.327v0.211l0.106,0.106v0.326l0.2,0.231l0.231,0.221h0.327l0.2,0.2v0.307l-0.104,0.105h-0.3l-0.212,-0.221h-0.269l-0.288,-0.3v-0.305l-0.211,-0.212v-0.192h-0.548l-0.163,0.163l0.317,0.318v0.461l-0.461,0.451h-1.525l-0.577,-0.567h-0.941l-0.462,0.471h-1.316l-0.221,-0.23c-0.96259,0.50008 -1.87451,1.09217 -2.723,1.768v0.663l0.384,0.394v0.374l-0.336,0.337v0.519l-0.3,0.288v0.4l0.269,0.27v0.47l-0.509,0.5v0.394l-0.366,0.365v0.855l0.375,0.375v0.634l0.461,0.461v0.827l0.394,0.394v0.509l0.615,0.615v0.663l0.558,0.557l0.23,-0.23v-0.3l-0.317,-0.317v-0.538l-0.413,-0.414v-0.182l-0.2,-0.2v-0.375l-0.221,-0.23v-0.308l0.154,-0.163h0.122l0.212,0.211v0.289l0.115,0.115v0.307l0.279,0.279v0.25l0.3,0.3v0.211l0.462,0.461h0.332v0.3l0.288,0.289v0.5l0.356,0.356h0.471l0.394,0.394h0.48l0.211,0.221h0.952l0.182,-0.183h0.337l0.259,0.25v0.346l0.3,0.307h1.259l0.288,0.289l0.163,0.163h0.212l0.2,0.2v0.3l0.221,0.23h0.127l0.289,0.288h0.345l0.279,0.289h0.4l0.211,-0.221v-0.433l-0.288,-0.288h-0.413l-0.212,-0.2h-0.374l-0.231,-0.221v-0.49l0.346,-0.346v-0.394l-0.279,-0.278h-1.25l-0.223,-0.235v-0.288l0.2,-0.2h0.221l0.24,-0.24v-0.577h-0.509l-0.2,-0.2h-0.352l-0.24,0.25v0.317l-0.25,0.25v0.25l-0.269,0.26h-0.961l-0.269,-0.26h-0.182v-0.4l-0.356,-0.356v-0.269l-0.269,-0.269v-0.391l0.356,-0.356v-0.365l0.288,-0.288h0.365l0.356,-0.356h0.855l0.229,-0.225h0.347l0.289,0.288h0.611l0.269,-0.278h0.394l0.211,0.221h0.384v0.326l0.269,0.269v0.414l0.414,0.413h0.451l0.308,-0.3v-0.481l-0.317,-0.317h-0.212l-0.317,-0.307v-0.577l0.279,-0.269h0.5l0.624,-0.624h0.3l0.24,-0.24v-0.673l0.73,-0.721h0.27l0.441,-0.442v-0.394l0.289,-0.278h0.663l0.365,0.355h0.6l0.39,-0.385v-0.2l-0.365,-0.365h-0.558l-0.336,-0.336h-0.4l-0.221,-0.211v-0.289l0.192,-0.2h0.683l0.307,0.308h0.7l0.336,0.336v0.356l0.317,0.307h0.769l0.442,-0.442v-0.264zM24.282,14.266l-0.282,0.279h-0.375l-0.153,-0.154v-0.106l-0.145,-0.153v-0.164h-0.192l-0.144,-0.144v-0.105h-0.115l-0.116,0.115l-0.317,0.317v0.567l-0.355,0.365h-0.327l-0.2,-0.2v-0.432l0.327,-0.327v-0.2l-0.221,-0.221h-0.259l-0.3,0.289h-0.356l-0.25,-0.25v-0.3l0.327,-0.317h0.413l0.913,0.009l0.192,0.193h0.577l0.317,0.317h0.634l0.4,0.4z" fill="url(#color-8)"></path><path d="M30.582,12.681h-0.49l-0.365,-0.375v-0.538l-0.442,-0.432h-0.807l-0.519,-0.519v-0.366l-0.336,-0.336h-0.51l-0.317,0.317h-0.375l-0.259,-0.259h-0.586l-0.308,-0.308h-0.768l-0.241,0.25v0.308l0.289,0.288v0.519l-0.337,0.336v0.721l-0.24,0.24h-0.317l-0.336,-0.336v-0.433l-0.24,-0.23h-0.385l-0.307,-0.317h-0.413l-0.375,-0.385h-0.519l-0.432,-0.423v-0.2l0.49,-0.49h0.8l0.384,-0.385h0.3l0.26,0.25h0.3l0.163,0.173h0.192l0.24,-0.25v-0.26l-0.247,-0.241v-0.355l0.192,-0.183v-0.307l0.144,-0.144h0.414l0.269,0.269v0.231l0.394,0.393v0.2l0.278,0.279h0.394l0.548,0.49h0.356l0.259,-0.25h0.279l0.336,-0.336v-0.45l-0.211,-0.211h-0.394l-0.346,-0.356h-0.654l-0.547,-0.547h-0.654l-0.25,-0.26h-0.394v-0.4l0.337,-0.337l0.249,-0.259c-0.172,-0.01 -0.355,-0.01 -0.528,-0.01c-0.76501,-0.00277 -1.52926,0.04869 -2.287,0.154l0.327,0.327v0.211l0.106,0.106v0.326l0.2,0.231l0.231,0.221h0.327l0.2,0.2v0.307l-0.104,0.105h-0.3l-0.212,-0.221h-0.269l-0.288,-0.3v-0.305l-0.211,-0.212v-0.192h-0.548l-0.163,0.163l0.317,0.318v0.461l-0.461,0.451h-1.525l-0.577,-0.567h-0.941l-0.462,0.471h-1.316l-0.221,-0.23c-0.96259,0.50008 -1.87451,1.09217 -2.723,1.768v0.663l0.384,0.394v0.374l-0.336,0.337v0.519l-0.3,0.288v0.4l0.269,0.27v0.47l-0.509,0.5v0.394l-0.366,0.365v0.855l0.375,0.375v0.634l0.461,0.461v0.827l0.394,0.394v0.509l0.615,0.615v0.663l0.558,0.557l0.23,-0.23v-0.3l-0.317,-0.317v-0.538l-0.413,-0.414v-0.182l-0.2,-0.2v-0.375l-0.221,-0.23v-0.308l0.154,-0.163h0.122l0.212,0.211v0.289l0.115,0.115v0.307l0.279,0.279v0.25l0.3,0.3v0.211l0.462,0.461h0.332v0.3l0.288,0.289v0.5l0.356,0.356h0.471l0.394,0.394h0.48l0.211,0.221h0.952l0.182,-0.183h0.337l0.259,0.25v0.346l0.3,0.307h1.259l0.288,0.289l0.163,0.163h0.212l0.2,0.2v0.3l0.221,0.23h0.127l0.289,0.288h0.345l0.279,0.289h0.4l0.211,-0.221v-0.433l-0.288,-0.288h-0.413l-0.212,-0.2h-0.374l-0.231,-0.221v-0.49l0.346,-0.346v-0.394l-0.279,-0.278h-1.25l-0.223,-0.235v-0.288l0.2,-0.2h0.221l0.24,-0.24v-0.577h-0.509l-0.2,-0.2h-0.352l-0.24,0.25v0.317l-0.25,0.25v0.25l-0.269,0.26h-0.961l-0.269,-0.26h-0.182v-0.4l-0.356,-0.356v-0.269l-0.269,-0.269v-0.391l0.356,-0.356v-0.365l0.288,-0.288h0.365l0.356,-0.356h0.855l0.229,-0.225h0.347l0.289,0.288h0.611l0.269,-0.278h0.394l0.211,0.221h0.384v0.326l0.269,0.269v0.414l0.414,0.413h0.451l0.308,-0.3v-0.481l-0.317,-0.317h-0.212l-0.317,-0.307v-0.577l0.279,-0.269h0.5l0.624,-0.624h0.3l0.24,-0.24v-0.673l0.73,-0.721h0.27l0.441,-0.442v-0.394l0.289,-0.278h0.663l0.365,0.355h0.6l0.39,-0.385v-0.2l-0.365,-0.365h-0.558l-0.336,-0.336h-0.4l-0.221,-0.211v-0.289l0.192,-0.2h0.683l0.307,0.308h0.7l0.336,0.336v0.356l0.317,0.307h0.769l0.442,-0.442v-0.264zM24.282,14.266l-0.282,0.279h-0.375l-0.153,-0.154v-0.106l-0.145,-0.153v-0.164h-0.192l-0.144,-0.144v-0.105h-0.115l-0.116,0.115l-0.317,0.317v0.567l-0.355,0.365h-0.327l-0.2,-0.2v-0.432l0.327,-0.327v-0.2l-0.221,-0.221h-0.259l-0.3,0.289h-0.356l-0.25,-0.25v-0.3l0.327,-0.317h0.413l0.913,0.009l0.192,0.193h0.577l0.317,0.317h0.634l0.4,0.4z" fill="url(#color-9)"></path><path d="M30.582,12.681h-0.49l-0.365,-0.375v-0.538l-0.442,-0.432h-0.807l-0.519,-0.519v-0.366l-0.336,-0.336h-0.51l-0.317,0.317h-0.375l-0.259,-0.259h-0.586l-0.308,-0.308h-0.768l-0.241,0.25v0.308l0.289,0.288v0.519l-0.337,0.336v0.721l-0.24,0.24h-0.317l-0.336,-0.336v-0.433l-0.24,-0.23h-0.385l-0.307,-0.317h-0.413l-0.375,-0.385h-0.519l-0.432,-0.423v-0.2l0.49,-0.49h0.8l0.384,-0.385h0.3l0.26,0.25h0.3l0.163,0.173h0.192l0.24,-0.25v-0.26l-0.247,-0.241v-0.355l0.192,-0.183v-0.307l0.144,-0.144h0.414l0.269,0.269v0.231l0.394,0.393v0.2l0.278,0.279h0.394l0.548,0.49h0.356l0.259,-0.25h0.279l0.336,-0.336v-0.45l-0.211,-0.211h-0.394l-0.346,-0.356h-0.654l-0.547,-0.547h-0.654l-0.25,-0.26h-0.394v-0.4l0.337,-0.337l0.249,-0.259c-0.172,-0.01 -0.355,-0.01 -0.528,-0.01c-0.76501,-0.00277 -1.52926,0.04869 -2.287,0.154l0.327,0.327v0.211l0.106,0.106v0.326l0.2,0.231l0.231,0.221h0.327l0.2,0.2v0.307l-0.104,0.105h-0.3l-0.212,-0.221h-0.269l-0.288,-0.3v-0.305l-0.211,-0.212v-0.192h-0.548l-0.163,0.163l0.317,0.318v0.461l-0.461,0.451h-1.525l-0.577,-0.567h-0.941l-0.462,0.471h-1.316l-0.221,-0.23c-0.96259,0.50008 -1.87451,1.09217 -2.723,1.768v0.663l0.384,0.394v0.374l-0.336,0.337v0.519l-0.3,0.288v0.4l0.269,0.27v0.47l-0.509,0.5v0.394l-0.366,0.365v0.855l0.375,0.375v0.634l0.461,0.461v0.827l0.394,0.394v0.509l0.615,0.615v0.663l0.558,0.557l0.23,-0.23v-0.3l-0.317,-0.317v-0.538l-0.413,-0.414v-0.182l-0.2,-0.2v-0.375l-0.221,-0.23v-0.308l0.154,-0.163h0.122l0.212,0.211v0.289l0.115,0.115v0.307l0.279,0.279v0.25l0.3,0.3v0.211l0.462,0.461h0.332v0.3l0.288,0.289v0.5l0.356,0.356h0.471l0.394,0.394h0.48l0.211,0.221h0.952l0.182,-0.183h0.337l0.259,0.25v0.346l0.3,0.307h1.259l0.288,0.289l0.163,0.163h0.212l0.2,0.2v0.3l0.221,0.23h0.127l0.289,0.288h0.345l0.279,0.289h0.4l0.211,-0.221v-0.433l-0.288,-0.288h-0.413l-0.212,-0.2h-0.374l-0.231,-0.221v-0.49l0.346,-0.346v-0.394l-0.279,-0.278h-1.25l-0.223,-0.235v-0.288l0.2,-0.2h0.221l0.24,-0.24v-0.577h-0.509l-0.2,-0.2h-0.352l-0.24,0.25v0.317l-0.25,0.25v0.25l-0.269,0.26h-0.961l-0.269,-0.26h-0.182v-0.4l-0.356,-0.356v-0.269l-0.269,-0.269v-0.391l0.356,-0.356v-0.365l0.288,-0.288h0.365l0.356,-0.356h0.855l0.229,-0.225h0.347l0.289,0.288h0.611l0.269,-0.278h0.394l0.211,0.221h0.384v0.326l0.269,0.269v0.414l0.414,0.413h0.451l0.308,-0.3v-0.481l-0.317,-0.317h-0.212l-0.317,-0.307v-0.577l0.279,-0.269h0.5l0.624,-0.624h0.3l0.24,-0.24v-0.673l0.73,-0.721h0.27l0.441,-0.442v-0.394l0.289,-0.278h0.663l0.365,0.355h0.6l0.39,-0.385v-0.2l-0.365,-0.365h-0.558l-0.336,-0.336h-0.4l-0.221,-0.211v-0.289l0.192,-0.2h0.683l0.307,0.308h0.7l0.336,0.336v0.356l0.317,0.307h0.769l0.442,-0.442v-0.264zM24.282,14.266l-0.282,0.279h-0.375l-0.153,-0.154v-0.106l-0.145,-0.153v-0.164h-0.192l-0.144,-0.144v-0.105h-0.115l-0.116,0.115l-0.317,0.317v0.567l-0.355,0.365h-0.327l-0.2,-0.2v-0.432l0.327,-0.327v-0.2l-0.221,-0.221h-0.259l-0.3,0.289h-0.356l-0.25,-0.25v-0.3l0.327,-0.317h0.413l0.913,0.009l0.192,0.193h0.577l0.317,0.317h0.634l0.4,0.4z" fill="url(#color-10)"></path><path d="M27.272,20.975h-0.798l-0.175,-0.174h-0.178l-0.005,0.521l0.322,0.322h0.721v0.012h0.151l0.24,-0.239v-0.164z" fill="url(#color-11)"></path><path d="M41.546,24c-0.00086,9.23461 -7.15945,16.88801 -16.37341,17.50515c-9.21396,0.61714 -17.32927,-6.01323 -18.56164,-15.16523c-1.23237,-9.15201 4.84004,-17.69284 13.88906,-19.53492c1.15165,-0.23603 2.32442,-0.35364 3.5,-0.351c8.48982,-0.00033 15.76098,6.0801 17.263,14.436c0.18855,1.02593 0.28328,2.06689 0.283,3.11z" fill="url(#color-12)" opacity="0.5"></path><path d="M41.546,24c-0.00086,9.23461 -7.15945,16.88801 -16.37341,17.50515c-9.21396,0.61714 -17.32927,-6.01323 -18.56164,-15.16523c-1.23237,-9.15201 4.84004,-17.69284 13.88906,-19.53492c1.15165,-0.23603 2.32442,-0.35364 3.5,-0.351c8.48982,-0.00033 15.76098,6.0801 17.263,14.436c0.18855,1.02593 0.28328,2.06689 0.283,3.11z" fill="url(#color-13)" opacity="0.5"></path><path d="M41.546,24c-0.00086,9.23461 -7.15945,16.88801 -16.37341,17.50515c-9.21396,0.61714 -17.32927,-6.01323 -18.56164,-15.16523c-1.23237,-9.15201 4.84004,-17.69284 13.88906,-19.53492c1.15165,-0.23603 2.32442,-0.35364 3.5,-0.351c8.48982,-0.00033 15.76098,6.0801 17.263,14.436c0.18855,1.02593 0.28328,2.06689 0.283,3.11z" fill="url(#color-14)" opacity="0.2"></path><path d="M41.546,24c-0.00086,9.23461 -7.15945,16.88801 -16.37341,17.50515c-9.21396,0.61714 -17.32927,-6.01323 -18.56164,-15.16523c-1.23237,-9.15201 4.84004,-17.69284 13.88906,-19.53492c1.15165,-0.23603 2.32442,-0.35364 3.5,-0.351c8.48982,-0.00033 15.76098,6.0801 17.263,14.436c0.18855,1.02593 0.28328,2.06689 0.283,3.11z" fill="url(#color-15)" opacity="0.5"></path><path d="M41.546,24c-0.00086,9.23461 -7.15945,16.88801 -16.37341,17.50515c-9.21396,0.61714 -17.32927,-6.01323 -18.56164,-15.16523c-1.23237,-9.15201 4.84004,-17.69284 13.88906,-19.53492c1.15165,-0.23603 2.32442,-0.35364 3.5,-0.351c8.48982,-0.00033 15.76098,6.0801 17.263,14.436c0.18855,1.02593 0.28328,2.06689 0.283,3.11z" fill="url(#color-16)" opacity="0.5"></path></g></g></g></g></svg>