<svg xmlns="http://www.w3.org/2000/svg" xmlns:xlink="http://www.w3.org/1999/xlink" viewBox="0 0 48 48" width="256px" height="256px"><defs><radialGradient id="Qx5J4dKciGeQgZq1ytolUw" cx="20.366" cy="9.094" r="3.394" data-name="New Gradient Swatch 1" gradientTransform="matrix(.75386 -.65703 .48374 .55503 .614 17.428)" xlink:href="#Qx5J4dKciGeQgZq1ytolUb"/><radialGradient id="Qx5J4dKciGeQgZq1ytolUa" cx="32.927" cy="39.096" r="5.62" data-name="Новый образец градиента 1" gradientTransform="rotate(-128.483 36.987 30.683) scale(1 .56962)" gradientUnits="userSpaceOnUse"><stop offset="0" stop-color="#ffe16e"/><stop offset=".393" stop-color="#ffd226"/><stop offset=".59" stop-color="#fdcd23"/><stop offset=".836" stop-color="#f6bd1b"/><stop offset=".999" stop-color="#f0af13"/></radialGradient><radialGradient id="Qx5J4dKciGeQgZq1ytolUh" cx="16.925" cy="25.788" r="5.918" gradientTransform="matrix(.98187 -.18954 .099 .5128 -2.246 15.772)" xlink:href="#Qx5J4dKciGeQgZq1ytolUa"/><radialGradient id="Qx5J4dKciGeQgZq1ytolUi" cx="16.72" cy="35.001" r="6.55" gradientTransform="matrix(-.55826 -.82967 .54297 -.36535 7.05 61.661)" xlink:href="#Qx5J4dKciGeQgZq1ytolUa"/><radialGradient id="Qx5J4dKciGeQgZq1ytolUJ" cx="35.945" cy="45.247" r="2.292" xlink:href="#Qx5J4dKciGeQgZq1ytolUf"/><radialGradient id="Qx5J4dKciGeQgZq1ytolUf" cx="19.964" cy="42.442" r="2.378" gradientUnits="userSpaceOnUse"><stop offset=".516" stop-color="#ccc"/><stop offset=".789" stop-color="#b9bec1"/><stop offset=".992" stop-color="#a7b2b8"/></radialGradient><radialGradient id="Qx5J4dKciGeQgZq1ytolUk" cx="36.819" cy="21.702" r="3.612" gradientTransform="rotate(26.009 21.417 18.145) scale(1 .67218)" xlink:href="#Qx5J4dKciGeQgZq1ytolUa"/><radialGradient id="Qx5J4dKciGeQgZq1ytolUl" cx="30.458" cy="12.109" r="5.488" gradientTransform="matrix(.98316 .18277 -.0836 .4497 1.525 1.097)" xlink:href="#Qx5J4dKciGeQgZq1ytolUa"/><radialGradient id="Qx5J4dKciGeQgZq1ytolUm" cx="35.016" cy="18.377" r="5.922" gradientTransform="matrix(-.2339 -.97226 .48015 -.11552 34.382 54.544)" xlink:href="#Qx5J4dKciGeQgZq1ytolUa"/><radialGradient id="Qx5J4dKciGeQgZq1ytolUn" cx="14.429" cy="15.836" r="5.016" gradientTransform="matrix(.87619 .48197 -.29262 .53197 6.42 .458)" xlink:href="#Qx5J4dKciGeQgZq1ytolUa"/><radialGradient id="Qx5J4dKciGeQgZq1ytolUo" cx="17.644" cy="16.082" r="4.626" gradientTransform="rotate(-39.309 28.858 12.077) scale(1 .50191)" xlink:href="#Qx5J4dKciGeQgZq1ytolUa"/><radialGradient id="Qx5J4dKciGeQgZq1ytolUp" cx="7.649" cy="16.42" r="1.654" xlink:href="#Qx5J4dKciGeQgZq1ytolUa"/><radialGradient id="Qx5J4dKciGeQgZq1ytolUq" cx="9.093" cy="14.355" r="1.34" data-name="Безымянный градиент 41" gradientUnits="userSpaceOnUse"><stop offset="0" stop-color="#8c6239" stop-opacity=".9"/><stop offset=".122" stop-color="#8c6239" stop-opacity=".686"/><stop offset=".291" stop-color="#8c6239" stop-opacity=".44"/><stop offset=".463" stop-color="#8c6239" stop-opacity=".247"/><stop offset=".637" stop-color="#8c6239" stop-opacity=".109"/><stop offset=".814" stop-color="#8c6239" stop-opacity=".027"/><stop offset="1" stop-color="#8c6239" stop-opacity="0"/></radialGradient><radialGradient id="Qx5J4dKciGeQgZq1ytolUr" cx="9.058" cy="13.35" r="2.353" xlink:href="#Qx5J4dKciGeQgZq1ytolUa"/><radialGradient id="Qx5J4dKciGeQgZq1ytolUs" cx="8.758" cy="13.204" r="2.643" gradientTransform="rotate(-23.29 22.964 10.276) scale(1 .55653)" xlink:href="#Qx5J4dKciGeQgZq1ytolUa"/><radialGradient id="Qx5J4dKciGeQgZq1ytolUt" cx="7.935" cy="13.49" r="1.392" xlink:href="#Qx5J4dKciGeQgZq1ytolUa"/><radialGradient id="Qx5J4dKciGeQgZq1ytolUu" cx="8.905" cy="13.654" r="1.145" xlink:href="#Qx5J4dKciGeQgZq1ytolUa"/><radialGradient id="Qx5J4dKciGeQgZq1ytolUv" cx="20.633" cy="13.115" r="2.435" gradientUnits="userSpaceOnUse"><stop offset="0" stop-color="#ffd226"/><stop offset=".325" stop-color="#fdcd23"/><stop offset=".73" stop-color="#f6bd1b"/><stop offset=".999" stop-color="#f0af13"/></radialGradient><radialGradient id="Qx5J4dKciGeQgZq1ytolUg" cx="26.839" cy="31.615" r="4.923" gradientTransform="matrix(-.56169 -.82735 .46101 -.31298 27.34 63.715)" xlink:href="#Qx5J4dKciGeQgZq1ytolUa"/><radialGradient id="Qx5J4dKciGeQgZq1ytolUx" cx="17.272" cy="7.404" r="3.996" gradientTransform="matrix(-.00024 -1 .9442 -.00023 10.285 24.678)" xlink:href="#Qx5J4dKciGeQgZq1ytolUa"/><radialGradient id="Qx5J4dKciGeQgZq1ytolUG" cx="37.835" cy="43.161" r="2.879" xlink:href="#Qx5J4dKciGeQgZq1ytolUd"/><radialGradient id="Qx5J4dKciGeQgZq1ytolUd" cx="21.929" cy="40.396" r="2.872" gradientUnits="userSpaceOnUse"><stop offset=".002" stop-color="#3a434a"/><stop offset="1" stop-color="#1c2024"/></radialGradient><radialGradient id="Qx5J4dKciGeQgZq1ytolUA" cx="17.562" cy="7.411" r=".222" gradientUnits="userSpaceOnUse"><stop offset="0" stop-color="#1c1911"/><stop offset=".999" stop-color="#171714"/></radialGradient><radialGradient id="Qx5J4dKciGeQgZq1ytolUB" cx="20.231" cy="2.029" r="6.164" gradientUnits="userSpaceOnUse"><stop offset="0" stop-color="#8c6239"/><stop offset=".314" stop-color="#754c25"/><stop offset=".554" stop-color="#603813"/><stop offset="1" stop-color="#573210"/></radialGradient><radialGradient id="Qx5J4dKciGeQgZq1ytolUE" cx="20.524" cy="16.985" r="9.422" gradientTransform="rotate(-104.821 22.763 14.077) scale(1 .65755)" xlink:href="#Qx5J4dKciGeQgZq1ytolUc"/><radialGradient id="Qx5J4dKciGeQgZq1ytolUD" cx="19.687" cy="24.088" r="9.042" data-name="Безымянный градиент 32" gradientTransform="matrix(.84891 -.52854 .27737 .4455 -3.707 23.762)" gradientUnits="userSpaceOnUse"><stop offset="0" stop-color="#4c5185"/><stop offset=".526" stop-color="#2d447e"/><stop offset=".828" stop-color="#263b72"/><stop offset="1" stop-color="#203469"/></radialGradient><radialGradient id="Qx5J4dKciGeQgZq1ytolUK" cx="26.301" cy="11.292" r="6.1" gradientTransform="matrix(.98558 .16922 -.12107 .70513 1.746 -1.121)" xlink:href="#Qx5J4dKciGeQgZq1ytolUc"/><linearGradient id="Qx5J4dKciGeQgZq1ytolUC" x1="30.463" x2="26.918" y1="32.981" y2="26.339" data-name="Безымянный градиент 33" gradientUnits="userSpaceOnUse"><stop offset="0" stop-color="#2d447e"/><stop offset="1" stop-color="#172a4f"/></linearGradient><linearGradient id="Qx5J4dKciGeQgZq1ytolUc" x1="15.684" x2="19.117" y1="18.095" y2="16.17" data-name="Безымянный градиент 56" gradientUnits="userSpaceOnUse"><stop offset=".002" stop-color="#f5432c"/><stop offset=".206" stop-color="#e83e28"/><stop offset="1" stop-color="#b82c1a"/></linearGradient><linearGradient id="Qx5J4dKciGeQgZq1ytolUF" x1="30.158" x2="18.562" y1="19.759" y2="17.038" data-name="Безымянный градиент 15" gradientUnits="userSpaceOnUse"><stop offset="0" stop-color="#661c1c" stop-opacity=".5"/><stop offset=".042" stop-color="#611c1c" stop-opacity=".466"/><stop offset=".411" stop-color="#3c1d1b" stop-opacity=".21"/><stop offset=".741" stop-color="#251d1b" stop-opacity=".055"/><stop offset="1" stop-color="#1d1d1b" stop-opacity="0"/></linearGradient><linearGradient id="Qx5J4dKciGeQgZq1ytolUz" x1="17.402" x2="17.988" y1="7.41" y2="7.41" gradientUnits="userSpaceOnUse"><stop offset="0" stop-color="#c69c6d"/><stop offset="1" stop-color="#754c24"/></linearGradient><linearGradient id="Qx5J4dKciGeQgZq1ytolUe" x1="21.491" x2="29.063" y1="23.442" y2="23.442" data-name="Безымянный градиент 50" gradientUnits="userSpaceOnUse"><stop offset="0" stop-color="#172a4f"/><stop offset="1" stop-color="#172a4f" stop-opacity="0"/></linearGradient><linearGradient id="Qx5J4dKciGeQgZq1ytolUH" x1="29.048" x2="18.806" y1="22.425" y2="30.922" xlink:href="#Qx5J4dKciGeQgZq1ytolUe"/><linearGradient id="Qx5J4dKciGeQgZq1ytolUI" x1="24.184" x2="26.591" y1="14.176" y2="23.512" data-name="Безымянный градиент 54" gradientUnits="userSpaceOnUse"><stop offset="0" stop-color="#ccc"/><stop offset=".183" stop-color="#dfdfdf"/><stop offset=".328" stop-color="#f2f2f2"/><stop offset=".706" stop-color="#ccc"/><stop offset=".87" stop-color="#b9bec1"/><stop offset=".992" stop-color="#a7b2b8"/></linearGradient><linearGradient id="Qx5J4dKciGeQgZq1ytolUb" x1="35.088" x2="33.376" y1="22.775" y2="24.487" data-name="New Gradient Swatch 2" gradientUnits="userSpaceOnUse"><stop offset="0" stop-color="#8c6239" stop-opacity=".9"/><stop offset="1" stop-color="#8c6239" stop-opacity="0"/></linearGradient><linearGradient id="Qx5J4dKciGeQgZq1ytolUj" x1="32.758" x2="33.835" y1="25.106" y2="24.029" data-name="Безымянный градиент 42" xlink:href="#Qx5J4dKciGeQgZq1ytolUa"/><linearGradient id="Qx5J4dKciGeQgZq1ytolUy" x1="21.178" x2="22.046" y1="8.934" y2="7.89" xlink:href="#Qx5J4dKciGeQgZq1ytolUb"/></defs><path fill="url(#Qx5J4dKciGeQgZq1ytolUa)" d="M38.53794,40.72973a7.78793,7.78793,0,0,1-.82137-1.01251c-.253-.35559-.48261-.73163-.704-1.11484a7.86366,7.86366,0,0,1-.58-1.223c-.16374-.43349-.3099-.88232-.47923-1.31088a5.57244,5.57244,0,0,0-.63259-1.17716,7.42024,7.42024,0,0,0-.8612-.97776,6.62086,6.62086,0,0,0-1.04218-.81989,5.4425,5.4425,0,0,0-.60683-.33521,3.887,3.887,0,0,0-.69627-.25719l-.88286-.23a1.32483,1.32483,0,0,0-1.32429,2.15486l6.851,7.85568.05129.0589q.02337.02658.0486.05206a1.18191,1.18191,0,1,0,1.67985-1.663Z"/><path fill="url(#Qx5J4dKciGeQgZq1ytolUg)" d="M32.40242,32.48417,28.84747,24.051l-.01642-.03817a2.74832,2.74832,0,1,0-5.03216,2.21145l.35043.79741a15.26755,15.26755,0,0,0,1.0865,1.98321c.10181.15816.20032.31841.30484.47483l.32041.46494c.21128.31146.43417.61556.66247.91625.11394.15046.22759.30116.34622.44866q.17421.22361.35745.44154c.11844.14762.24816.28812.373.43169.12778.14171.24743.28858.38188.42607l.39773.41611.41637.40424a10.33211,10.33211,0,0,0,.90269.76435l.28847.20994a1.60164,1.60164,0,0,0,2.41505-1.91939Z"/><path fill="url(#Qx5J4dKciGeQgZq1ytolUh)" d="M28.79762,23.89091a2.75649,2.75649,0,0,0-3.6171-1.43245c-.05.01865-.09985.0384-.14932.06023l-.67367.29745a17.82734,17.82734,0,0,0-1.75687.91052q-.23153.13326-.4612.26959c-.18883.11456-.37967.22569-.56687.343l-.55742.35872c-.37489.23368-.73451.493-1.10016.74211-.1824.12526-.36506.25013-.54335.38229q-.27022.19355-.535.39636c-.17875.1314-.35067.27428-.52553.41217-.17309.14091-.3511.27353-.52015.42121l-.51054.43725-.49925.45625c-.32684.31418-.65347.62865-.956.98349l-.1994.23328a1.60085,1.60085,0,0,0,1.83885,2.51323l9.8719-4.1431.03284-.014A2.75672,2.75672,0,0,0,28.79762,23.89091Z"/><path fill="url(#Qx5J4dKciGeQgZq1ytolUi)" d="M23.268,38.39823a7.60957,7.60957,0,0,1-.68229-1.09266c-.2046-.37963-.38345-.77669-.55324-1.17983a7.69753,7.69753,0,0,1-.4169-1.272c-.10646-.44593-.19358-.905-.30618-1.34679a5.4494,5.4494,0,0,0-.47476-1.23287,7.2417,7.2417,0,0,0-.7261-1.06307,6.47306,6.47306,0,0,0-.92506-.92859c-.11785-.09828-.24539-.19-.37648-.27937-.10118-.07581-.20528-.14965-.31327-.22089a3.88837,3.88837,0,0,0-.64166-.3432l-.78167-.32483a1.27057,1.27057,0,0,0-1.74834,1.25621,1.31441,1.31441,0,0,0,.223.8171l5.76633,8.533.04418.06545q.02019.02962.04242.05837a1.18193,1.18193,0,1,0,1.87-1.446Z"/><path fill="url(#Qx5J4dKciGeQgZq1ytolUj)" d="M33.33147,22.62945s.12621,2.00319.66634,2.028,1.11113,0,1.11113,0Z"/><path fill="url(#Qx5J4dKciGeQgZq1ytolUb)" d="M33.33147,22.62945s.12621,2.00319.66634,2.028,1.11113,0,1.11113,0Z"/><path fill="url(#Qx5J4dKciGeQgZq1ytolUk)" d="M33.39344,22.70334a3.50761,3.50761,0,0,0,1.10015,1.75245c1.0947.86421,2.0009,1.17952,1.8673.38308,0,0,.80248,0,.61729-.63,0,0,.84878-.12346.24068-.74267,0,0,.63822-.31139-.07092-.86229,0,0-1.92377-1.46128-2.8295-.83147C33.56921,22.29343,33.45994,22.37884,33.39344,22.70334Z"/><path fill="url(#Qx5J4dKciGeQgZq1ytolUl)" d="M32.4762,14.48076l-.3136-.24214a8.4126,8.4126,0,0,0-1.54281-.9087,13.24867,13.24867,0,0,0-1.61409-.61881,11.55167,11.55167,0,0,0-1.669-.39558,7.04739,7.04739,0,0,0-1.74551-.08426l-.55638.05143-.00786.00057-.00516.00061-.00936.00087-.01424.00194a1.25288,1.25288,0,0,0-.30081.0677l-.01326.00513c-.02626.00979-.05228.02-.07776.03147-.02032.009-.04.01906-.05984.02908l-.02379.012a1.30762,1.30762,0,0,0,.417,2.44915l.85158.12828.84832.14148c.56481.0973,1.128.20143,1.69139.30434.56148.1109,1.12463.215,1.68473.3315l.84.17542.837.18741a.94426.94426,0,0,0,.78342-1.66885Z"/><path fill="url(#Qx5J4dKciGeQgZq1ytolUm)" d="M35.079,22.20937l-.01542-.22348c-.04083-.59206-.117-1.173-.20723-1.74964l-.06769-.43245-.07746-.42937c-.0526-.28592-.102-.57288-.16465-.85568L34.3662,17.668l-.201-.84433a3.99749,3.99749,0,0,0-.25347-.82782,2.04314,2.04314,0,0,0-.54461-.73661l-.52441-.43638a1.04653,1.04653,0,0,0-1.66249,1.122l2.072,6.60891a.93592.93592,0,0,0,1.82677-.34442Z"/><path fill="url(#Qx5J4dKciGeQgZq1ytolUn)" d="M16.13915,18.26271c-.44809-.28215-.91289-.53518-1.38456-.77616-.46932-.24515-.94586-.47761-1.42028-.71385-.23594-.12028-.47513-.235-.70842-.35987L11.926,16.038c-.23062-.12961-.45938-.26247-.68161-.40673a7.02863,7.02863,0,0,1-.64882-.464.83266.83266,0,0,0-1.32543.42972l-.00575.02381c-.00377.01558-.00769.0311-.01054.04685-.0031.01662-.00511.03347-.00715.05027l-.00322.02542c-.0015.01691-.00191.03382-.00231.05085-.00029.0099-.001.01981-.00093.02971l.00124.02467a.82877.82877,0,0,0,.19031.50032l.28821.34772a6.11447,6.11447,0,0,0,.56986.6019c.0977.09555.20128.18086.30171.27167l.31031.25662c.41735.3359.835.67133,1.25684.99924a14.33563,14.33563,0,0,0,1.31083.905,2.62207,2.62207,0,0,0,1.53088.52065l.605-.01639a1.06883,1.06883,0,0,0,.53373-1.97261Z"/><path fill="url(#Qx5J4dKciGeQgZq1ytolUo)" d="M20.59136,13.972a1.32532,1.32532,0,0,0-1.8553.266l-.42136.56241-.43163.55261c-.29007.36625-.58539.72746-.87981,1.08959-.30059.35623-.59588.7175-.90084,1.06956l-.45792.52765-.46725.51885a.959.959,0,0,0,.99661,1.55777L16.659,19.966a5.73546,5.73546,0,0,0,1.34844-.64447,8.57821,8.57821,0,0,0,1.12361-.858,7.37251,7.37251,0,0,0,.95055-1.02235,4.66075,4.66075,0,0,0,.70917-1.25164l.25493-.71257A1.32593,1.32593,0,0,0,20.59136,13.972Z"/><path fill="url(#Qx5J4dKciGeQgZq1ytolUp)" d="M10.638,15.23965c.05828-.48141-.63338-3.2892-1.29392-2.273,0,0-.71666-.45813-.81944.30607,0,0-.75426-.22432-.71686.5364,0,0-.75641-.00071-.48749.62412,0,0,.99433,2.1045,2.1351,1.78564C10.27636,15.98943,10.605,15.51206,10.638,15.23965Z"/><path fill="url(#Qx5J4dKciGeQgZq1ytolUq)" d="M10.638,15.23965c.05828-.48141-.63338-3.2892-1.29392-2.273,0,0-.71666-.45813-.81944.30607,0,0-.75426-.22432-.71686.5364,0,0-.75641-.00071-.48749.62412,0,0,.99433,2.1045,2.1351,1.78564C10.27636,15.98943,10.605,15.51206,10.638,15.23965Z"/><path fill="url(#Qx5J4dKciGeQgZq1ytolUr)" d="M9.94916,14.34037c-.36866.06192-.945.5271-.71551,1.09325s.995.40962.995.40962.93357-.78011.72781-1.23052C10.8853,14.457,10.118,14.312,9.94916,14.34037Z"/><path fill="url(#Qx5J4dKciGeQgZq1ytolUs)" d="M8.26624,14.48675c.28279.421.35692.86655.16558.99506s-.479-.12469-.76176-.54574c-.09848-.14664-.24851-.28842-.31385-.41835-.17608-.35012-.07606-.51091.04864-.59466.13528-.09086.37.03506.59411.24554A1.864,1.864,0,0,1,8.26624,14.48675Z"/><path fill="url(#Qx5J4dKciGeQgZq1ytolUt)" d="M9.48387,13.40792c.28278.421.365,1.14094.17362,1.26945s-.50227-.36627-.78506-.78732c-.136-.20246-.38135-.44158-.34778-.61731.06912-.36186.15949-.36477.2421-.41231C8.96653,12.74547,9.20109,12.98687,9.48387,13.40792Z"/><path fill="url(#Qx5J4dKciGeQgZq1ytolUt)" d="M8.8457,13.87719c.28279.421.54617,1.0162.35483,1.1447s-.765-.25829-1.04773-.67934c-.10494-.15625-.28213-.29434-.32572-.44446a.54768.54768,0,0,1,.16582-.5771C8.18424,13.19249,8.56292,13.45613,8.8457,13.87719Z"/><path fill="url(#Qx5J4dKciGeQgZq1ytolUu)" d="M10.20756,13.33c.28278.421.31048.873.11914,1.0015s-.44127-.21139-.72405-.63245-.37881-.90755-.16558-.99506C9.7919,12.55833,9.92477,12.9089,10.20756,13.33Z"/><path fill="url(#Qx5J4dKciGeQgZq1ytolUr)" d="M10.49306,13.68742s-1.62808-.21925-1.67984.40328c-.05753.69185,1.29009.31892,1.29009.31892s.11411,1.096.72287.7245A.99951.99951,0,0,0,10.49306,13.68742Z"/><path fill="url(#Qx5J4dKciGeQgZq1ytolUv)" d="M22.78189,12.18441l.00143-.00021-.709-4.44764-2.67884.42461.709,4.44763.00143-.00022a1.355,1.355,0,0,0,2.676-.42417Z"/><path fill="url(#Qx5J4dKciGeQgZq1ytolUw)" d="M22.78189,12.18441l.00143-.00021-.709-4.44764-2.67884.42461.709,4.44763.00143-.00022a1.355,1.355,0,0,0,2.676-.42417Z"/><path fill="url(#Qx5J4dKciGeQgZq1ytolUx)" d="M20.56161,2.9847c-1.07273,0-3.78507.38026-3.78507,2.95113,0,.8029.27222.72642.27222,1.19749,0,.6321-.18518.742-.674,1.15252a.34195.34195,0,0,0,.12091.61816.40365.40365,0,0,1,.336.51342c-.09541.803.34472.30226.23387,1.37822-.04374.42452.57769.56518.83562.56518,1.44,0,2.36889.22441,3.24336-.88321A4.54994,4.54994,0,0,0,21.82,8.904c1.57737,0,1.90269-1.83078,1.90269-2.40227C23.72268,4.35617,22.594,2.9847,20.56161,2.9847Z"/><path fill="#805b2a" d="M18.35632,6.56991c-.08585-.02194-.18394-.04089-.2776-.05627-.09489-.0155-.19054-.02788-.28629-.03839q-.28762-.03042-.5767-.0365a.22472.22472,0,1,1,.01014-.44932.25051.25051,0,0,1,.04373.0053q.29869.065.591.15388c.09725.03016.19383.06221.28954.09753.09669.03606.18829.07211.28727.11917a.11019.11019,0,0,1-.07456.20628Z"/><path fill="#f0af13" d="M18.129,9.575c.03666-.03574.00651-.11051-.03945-.09844a2.66182,2.66182,0,0,1-1.12419.02065c-.11536-.02-.20465.11683-.1946.25288h0a.22787.22787,0,0,0,.2518.21764A1.62414,1.62414,0,0,0,18.129,9.575Z"/><path fill="url(#Qx5J4dKciGeQgZq1ytolUy)" d="M22.36233,7.94053a.55011.55011,0,0,0-.48193-.43447.39608.39608,0,0,0-.30865.1771c-.12671.16851-.23626.45194-.019.6014.06734.04633.15933.07148.18935.15243.03236.08727-.04528.23107-.0863.30916a.88876.88876,0,0,0,.28281-.07957A.648.648,0,0,0,22.36233,7.94053Z"/><path fill="#fff" d="M18.75373,7.58773a3.74283,3.74283,0,0,1-1.17153.39685c-.04942.00836-.035-.00989-.05473-.0441a.31927.31927,0,0,1-.03194-.05245,1.88045,1.88045,0,0,1-.06005-.20831,1.18655,1.18655,0,0,1-.00609-.53674,1.81834,1.81834,0,0,1,.07907-.2638c.00912-.02432.019-.04941.02964-.0745a1.39652,1.39652,0,0,1,1.24149.69259A.06442.06442,0,0,1,18.75373,7.58773Z"/><path fill="url(#Qx5J4dKciGeQgZq1ytolUz)" d="M17.98818,7.41135a.53334.53334,0,0,1-.46071.52913.13751.13751,0,0,1-.03194-.05245,1.88045,1.88045,0,0,1-.06005-.20831,1.18655,1.18655,0,0,1-.00609-.53674,1.81834,1.81834,0,0,1,.07907-.2638A.53462.53462,0,0,1,17.98818,7.41135Z"/><path fill="url(#Qx5J4dKciGeQgZq1ytolUA)" d="M17.72284,7.41135a.26929.26929,0,0,1-.26987.26913l-.01749-.00076a1.18655,1.18655,0,0,1-.00609-.53674.1191.1191,0,0,1,.02358-.00152A.26994.26994,0,0,1,17.72284,7.41135Z"/><circle cx="17.723" cy="7.226" r=".116" fill="#fff"/><path fill="#805b2a" d="M18.81515,7.55657a1.34558,1.34558,0,0,0-1.277-.75155C16.64648,6.82384,18.22814,6.91,18.81515,7.55657Z"/><path fill="url(#Qx5J4dKciGeQgZq1ytolUB)" d="M16.66322,5.20055c1.51467.51623,2.31352-.57265,3.43761.73934.86547,1.01015.18581,1.45988.73331,2.29025.04106.06227.13548.09911.14577.02522.35132-2.52213,2.65666-.24511.841.6527,0,0-.05369.25216-.12291.49467-.112.39244.56574.92825.745,1.06312.13826.104.13252-.32475.20963-.70436.15431-.75957,1.333-.16245,1.8719-3.36054.36477-2.16488-2.497-4.32878-4.48875-4.32878-1.60561,0-4.02684,1.15826-4.02684,2.44345C16.009,4.77,16.31489,5.08183,16.66322,5.20055Z"/><path fill="url(#Qx5J4dKciGeQgZq1ytolUc)" d="M18.83614,18.91434c.1166.1227.35269.03848.45235-.15958a16.28077,16.28077,0,0,1,2.20577-3.25305,1.82178,1.82178,0,0,0,.13743-2.51754h0a1.82179,1.82179,0,0,0-2.45235.58555,18.80891,18.80891,0,0,1-2.40252,2.87873.43268.43268,0,0,0-.03265.59792A14.0439,14.0439,0,0,1,18.83614,18.91434Z"/><path fill="url(#Qx5J4dKciGeQgZq1ytolUC)" d="M28.3348,32.775a6.84838,6.84838,0,0,0,3.2218-2.21277c.06743-.08861.17169-.20469.12676-.30656L28.845,24.08862l-.01617-.03781a2.68521,2.68521,0,0,0-3.62473-1.3445,2.72737,2.72737,0,0,0-1.27047,3.554l.31973.73166c.65472,2.03534,2.94242,4.8666,3.64141,5.70175A.41571.41571,0,0,0,28.3348,32.775Z"/><path fill="url(#Qx5J4dKciGeQgZq1ytolUD)" d="M28.81264,23.78962a2.77778,2.77778,0,0,0-3.64173-1.24386l-.61236.27038a25.75889,25.75889,0,0,0-6.06209,3.57759.07423.07423,0,0,0,.02376.12857c1.20854.34093,2.413,1.83227,3.17813,3.37348a.50334.50334,0,0,0,.73407.1924l2.13947-1.22837c.00254-.00172,2.934-1.44785,2.94021-1.45057A2.688,2.688,0,0,0,28.81264,23.78962Z"/><path fill="url(#Qx5J4dKciGeQgZq1ytolUe)" d="M28.7172,23.59583c-1.17778.28824-3.34-.23246-4.17025.21353a4.8341,4.8341,0,0,1-2.41129.77686l.53966-.89077a10.94638,10.94638,0,0,1,1.88824-.87885l.6132-.27046A2.79922,2.79922,0,0,1,28.7172,23.59583Z"/><path fill="url(#Qx5J4dKciGeQgZq1ytolUE)" d="M21.69121,24.33578c-.11975-.22584.2272-.71457-.10507-1.26368-1.25906-2.08072-3.68188-6.15979-2.99782-8.374.71176-2.3039,2.48169-3.44341,3.64288-3.44341a3.72393,3.72393,0,0,1,3.54095,2.63781,43.31332,43.31332,0,0,1,.775,4.70915,10.32554,10.32554,0,0,0,1.40733,3.68624c.40551.52639-.04953.96655-.48586.80764a7.65436,7.65436,0,0,0-3.09021.15889C23.66769,23.57279,22.15135,25.20361,21.69121,24.33578Z"/><path fill="url(#Qx5J4dKciGeQgZq1ytolUF)" d="M21.69121,24.33578c-.11975-.22584.2272-.71457-.10507-1.26368-1.25906-2.08072-3.68188-6.15979-2.99782-8.374.71176-2.3039,2.48169-3.44341,3.64288-3.44341a3.72393,3.72393,0,0,1,3.54095,2.63781,43.31332,43.31332,0,0,1,.775,4.70915,10.32554,10.32554,0,0,0,1.40733,3.68624c.40551.52639-.04953.96655-.48586.80764a7.65436,7.65436,0,0,0-3.09021.15889C23.66769,23.57279,22.15135,25.20361,21.69121,24.33578Z"/><path fill="url(#Qx5J4dKciGeQgZq1ytolUd)" d="M22.74658,41.55522a9.49508,9.49508,0,0,1-3.29878,1.544c-.58654-.0586-.76237-.7524-.23488-1.25829s1.35559-1.45007,1.18188-2.07348.26174-.993.7826-.76891a1.3101,1.3101,0,0,0,1.19484-.15905c.36095-.22906.23057-1.00538.72017-1.13247s.5667.54207,1.19622.876a.98084.98084,0,0,1,.28413,1.70417A20.77561,20.77561,0,0,1,22.74658,41.55522Z"/><path fill="url(#Qx5J4dKciGeQgZq1ytolUG)" d="M39.12942,44.247a13.59838,13.59838,0,0,1-1.489,1.461c-.4648.37316-1.17216.30282-2.22083.30282-.58946,0-.70883-.93135,0-1.10946a1.509,1.509,0,0,0,.88239-1.97381c-.29894-.574.0414-.96.60656-.91421a1.14829,1.14829,0,0,0,1.13608-.40285c.26682-.3377.01753-1.03133.47024-1.257s.66661.41307,1.35159.60947a.98085.98085,0,0,1,.63061,1.6085C39.98846,43.21848,39.12942,44.247,39.12942,44.247Z"/><g><path fill="#751a1a" d="M26.28053,16.5929c-2.431-.75248-3.111-1.98061-3.32052-2.74305l-.00119-.00354a3.01413,3.01413,0,0,1-.08539-.446l3.003.92557c.0972.43446.18545.9125.26583,1.39615C26.19186,16.01038,26.23757,16.30372,26.28053,16.5929Z" opacity=".003"/><path fill="#751a1a" d="M26.27292,16.54392c-2.4186-.73992-3.10263-1.94252-3.31291-2.69407l-.00119-.00354a2.77234,2.77234,0,0,1-.08539-.446l3.00286.9248c.0912.40753.174.856.24937,1.30971C26.1786,15.934,26.22731,16.24072,26.27292,16.54392Z" opacity=".006"/><path fill="#751a1a" d="M26.26532,16.49494c-2.40626-.72736-3.09426-1.90442-3.30531-2.64509l-.00119-.00354a2.56856,2.56856,0,0,1-.08539-.446l3.00272.924c.0852.3806.16256.79948.2329,1.22326C26.16535,15.85759,26.21705,16.17772,26.26532,16.49494Z" opacity=".009"/><path fill="#751a1a" d="M26.25772,16.446c-2.39391-.7148-3.08589-1.86633-3.29771-2.59611l-.00119-.00354a2.39121,2.39121,0,0,1-.08539-.446l3.00258.92327c.0792.35366.15112.743.21643,1.13681C26.15209,15.78119,26.2068,16.11471,26.25772,16.446Z" opacity=".012"/><path fill="#751a1a" d="M26.25011,16.397c-2.38156-.70224-3.07752-1.82824-3.2901-2.54714l-.00119-.00354a2.23706,2.23706,0,0,1-.08539-.446l3.00244.9225c.0732.32673.13968.68645.2,1.05037C26.13883,15.7048,26.19654,16.05171,26.25011,16.397Z" opacity=".015"/><path fill="#751a1a" d="M26.24251,16.348c-2.36922-.68968-3.06915-1.79015-3.2825-2.49816l-.00119-.00354a2.10226,2.10226,0,0,1-.08539-.446l3.0023.92173c.0672.2998.12824.62994.1835.96393C26.12558,15.6284,26.18628,15.98871,26.24251,16.348Z" opacity=".018"/><path fill="#751a1a" d="M26.23491,16.299c-2.35687-.67712-3.06078-1.752-3.2749-2.44918l-.00119-.00354a1.98293,1.98293,0,0,1-.08539-.446l3.00216.921c.06119.27286.1168.57342.167.87748C26.11232,15.552,26.176,15.9257,26.23491,16.299Z" opacity=".021"/><path fill="#751a1a" d="M26.2273,16.25005c-2.34452-.66456-3.0524-1.714-3.26729-2.4002l-.00119-.00354a1.87654,1.87654,0,0,1-.08539-.446l3.002.9202c.05519.24593.10535.51691.15057.791C26.09907,15.47561,26.16577,15.8627,26.2273,16.25005Z" opacity=".024"/><path fill="#751a1a" d="M26.2197,16.20107c-2.33218-.652-3.044-1.67586-3.25969-2.35122l-.00119-.00354a1.78075,1.78075,0,0,1-.08539-.446l3.00188.91943c.04919.219.09391.4604.1341.70459C26.08581,15.39921,26.15551,15.7997,26.2197,16.20107Z" opacity=".026"/><path fill="#751a1a" d="M26.21209,16.1521c-2.31982-.63944-3.03566-1.63777-3.25208-2.30225l-.00119-.00354a1.69472,1.69472,0,0,1-.08539-.446l3.00174.91867c.04319.19206.08247.40388.11764.61814C26.07256,15.32282,26.14526,15.73669,26.21209,16.1521Z" opacity=".029"/><path fill="#751a1a" d="M26.20449,16.10312C23.897,15.47624,23.1772,14.50344,22.96,13.84985l-.00119-.00354a1.61673,1.61673,0,0,1-.08539-.446l3.0016.9179c.03719.16513.071.34736.10117.5317C26.0593,15.24642,26.135,15.67369,26.20449,16.10312Z" opacity=".032"/><path fill="#751a1a" d="M26.19689,16.05414c-2.29513-.61432-3.01892-1.56158-3.23688-2.20429l-.00119-.00354a1.54537,1.54537,0,0,1-.08539-.446l3.00146.91713c.03119.1382.05959.29085.08471.44526C26.04605,15.17,26.12474,15.61069,26.19689,16.05414Z" opacity=".035"/><path fill="#751a1a" d="M26.18928,16.00516c-2.28278-.60176-3.01055-1.52349-3.22927-2.15531l-.00119-.00354a1.48051,1.48051,0,0,1-.08539-.446l3.00132.91637c.02519.11126.04814.23433.06824.35881C26.03279,15.09363,26.11449,15.54768,26.18928,16.00516Z" opacity=".038"/><path fill="#751a1a" d="M26.18168,15.95618C23.91124,15.367,23.1795,14.47079,22.96,13.84985l-.00119-.00354a1.42093,1.42093,0,0,1-.08539-.446l3.00118.9156c.01919.08433.0367.17782.05177.27237C26.01954,15.01724,26.10423,15.48468,26.18168,15.95618Z" opacity=".041"/><path fill="#751a1a" d="M26.17408,15.9072c-2.25809-.57663-2.99381-1.44729-3.21407-2.05735l-.00119-.00354a1.366,1.366,0,0,1-.08539-.446l3.001.91483c.01319.0574.02526.12131.03531.18593C26.00628,14.94084,26.094,15.42168,26.17408,15.9072Z" opacity=".044"/><path fill="#751a1a" d="M26.16647,15.85823C23.92073,15.29415,23.181,14.449,22.96,13.84985l-.00119-.00354a1.31513,1.31513,0,0,1-.08539-.446l3.0009.91407c.00719.03046.01382.06479.01884.09947C25.993,14.86445,26.08372,15.35867,26.16647,15.85823Z" opacity=".047"/><path fill="#751a1a" d="M26.15887,15.80925c-2.2334-.55152-2.97707-1.37111-3.19886-1.9594l-.00119-.00354a1.26819,1.26819,0,0,1-.08539-.446l3.00076.9133.00238.013C25.97977,14.78805,26.07346,15.29567,26.15887,15.80925Z" opacity=".05"/></g><path fill="url(#Qx5J4dKciGeQgZq1ytolUH)" d="M27.29526,24.52807c-.36176,1.56681-2.14088,2.65565-3.43963,3.4515l-.20164.12336c-.11742.07233-.23484.14351-.35226.21584-.48985.30011-.99748.60966-1.4731.9418-.10558.07349-.2427.16533-.33878.23645-.09845-.17195-.19468-.35149-.3038-.51753.08777-.064.20847-.1388.30335-.20522.49105-.3428,1.00579-.6571,1.50277-.9619.11742-.07117.23366-.14235.35108-.21468l.20282-.12458c1.20979-.74008,2.86555-1.75421,3.17157-3.07783a2.08984,2.08984,0,0,0-.21825-1.38652c.24909.00232.47562.013.65353.02965A2.49984,2.49984,0,0,1,27.29526,24.52807Z"/><path fill="url(#Qx5J4dKciGeQgZq1ytolUI)" d="M27.15292,23.03841c-.17791-.01662-.40444-.02733-.65353-.02965a6.93835,6.93835,0,0,0-.3914-.701c-.06049-.09729-.12217-.19569-.185-.29414a7.43425,7.43425,0,0,1-.70453-1.29641,10.7144,10.7144,0,0,1-.5029-3.0209,8.00424,8.00424,0,0,0-.70929-3.359l.51952-.28586a8.57556,8.57556,0,0,1,.78162,3.6045,10.18511,10.18511,0,0,0,.46732,2.85371,6.75492,6.75492,0,0,0,.65,1.18729c.13047.20635.26568.421.39021.64163A5.06642,5.06642,0,0,1,27.15292,23.03841Z"/><path fill="url(#Qx5J4dKciGeQgZq1ytolUf)" d="M24.57237,40.2875A20.69629,20.69629,0,0,1,22.747,41.55541a9.509,9.509,0,0,1-3.29967,1.54427.57867.57867,0,0,1-.5373-.47443.75724.75724,0,0,0,.43055.05815,1.88292,1.88292,0,0,0,.61914-.25621q1.71148-.9607,3.423-1.92147a2.30877,2.30877,0,0,0,1.15761-1.06863c.06168-.16488.08423-.34158.14116-.50883.00354-.01066.00829-.02253.013-.03319A.9166.9166,0,0,1,24.57237,40.2875Z"/><path fill="url(#Qx5J4dKciGeQgZq1ytolUJ)" d="M40.49665,42.57191c-.50765.64638-1.36756,1.6747-1.36756,1.6747a13.61052,13.61052,0,0,1-1.48851,1.46128c-.465.37361-1.17185.30243-2.22035.30243a.50192.50192,0,0,1-.48392-.58829.28855.28855,0,0,0,.06524.03915,5.66478,5.66478,0,0,0,1.03411.13117,2.5439,2.5439,0,0,0,1.85383-.9376,13.974,13.974,0,0,0,1.62389-1.854,2.6792,2.6792,0,0,0,.71521-1.47547,2.07716,2.07716,0,0,0-.00594-.2111A.92781.92781,0,0,1,40.49665,42.57191Z"/><path fill="url(#Qx5J4dKciGeQgZq1ytolUK)" d="M27.26278,15.4114a.23647.23647,0,0,1-.34487.189,9.1976,9.1976,0,0,0-2.80824-.88227A1.5076,1.5076,0,0,1,22.881,12.97577h0a1.50761,1.50761,0,0,1,1.7424-1.2287,10.48811,10.48811,0,0,0,2.75626.47659.358.358,0,0,1,.29182.41382A18.79209,18.79209,0,0,0,27.26278,15.4114Z"/></svg>