<svg xmlns="http://www.w3.org/2000/svg" xmlns:xlink="http://www.w3.org/1999/xlink" viewBox="0,0,256,256" width="50px" height="50px"><g fill="none" fill-rule="nonzero" stroke="none" stroke-width="1" stroke-linecap="butt" stroke-linejoin="none" stroke-miterlimit="10" stroke-dasharray="" stroke-dashoffset="0" font-family="none" font-weight="none" font-size="none" text-anchor="none" style="mix-blend-mode: normal"><path transform="scale(5.12,5.12)" d="M42,7.5c0,2.484 -2.01191,4.5 -4.50391,4.5c-2.48,0 -4.49609,-2.016 -4.49609,-4.5c0,-2.484 2.01609,-4.5 4.49609,-4.5c2.492,0 4.50391,2.016 4.50391,4.5zM23.49609,10.07031l0.02344,-0.00391l8.16406,1.78125l2.50781,1.39453l0.00195,0.00781c1.06239,0.46187 1.80664,1.5183 1.80664,2.75c0,0.53451 -0.15114,1.03004 -0.39648,1.46484l0.00586,0.01953l-4.67187,9.23438l5.40234,4.78906l0.00781,0.02344c0.39831,0.36553 0.65234,0.88521 0.65234,1.46875c0,0.09054 -0.0157,0.17633 -0.02734,0.26367l0.00977,0.02539l-2.02734,10.67188h-0.00195c-0.21706,1.15906 -1.23182,2.03906 -2.45312,2.03906c-1.379,0 -2.5,-1.121 -2.5,-2.5c0,-0.1817 0.02164,-0.35853 0.05859,-0.5293l1.69531,-8.74414l-7.58594,-4.67969l-0.00195,-0.01172c-1.28187,-0.66606 -2.16602,-1.98928 -2.16602,-3.53516c0,-0.87262 0.28647,-1.67296 0.75977,-2.33008l-0.00195,-0.00977l4.93359,-8.04297l-4.41016,-1.39844l-5.99219,4.30859l-0.00391,-0.00586c-0.34826,0.29436 -0.79319,0.47852 -1.28516,0.47852c-1.105,0 -2,-0.895 -2,-2c0,-0.72149 0.3846,-1.34746 0.95703,-1.69922v-0.00195l6.92969,-4.97461l0.03711,-0.00586c0.31098,-0.19921 0.67926,-0.31836 1.07617,-0.31836c0.17254,0 0.3364,0.02928 0.49609,0.07031zM10.60352,17.02148l4.44336,4.78711c0.363,0.39 0.5532,0.90055 0.5332,1.43555c-0.021,0.534 -0.24667,1.02958 -0.63867,1.39258l-3.17969,2.94922c-0.371,0.345 -0.85142,0.5332 -1.35742,0.5332c-0.025,0 -0.05117,-0.00095 -0.07617,-0.00195c-0.534,-0.021 -1.02763,-0.24472 -1.39062,-0.63672h-0.00195l-4.44336,-4.78906c-0.749,-0.81 -0.70058,-2.07717 0.10742,-2.82617l3.17773,-2.94922c0.4035,-0.375 0.9238,-0.55208 1.43555,-0.5332c0.51175,0.01887 1.01513,0.23317 1.39063,0.63867zM39,23h6c1.105,0 2,0.895 2,2c0,1.105 -0.895,2 -2,2h-7c-0.801,0 -1.48859,-0.47334 -1.80859,-1.15234l-0.01172,-0.00781l-1.20703,-2.66797l2.24219,-4.42969zM23.04688,31.20313c0.008,0.004 0.60459,0.37572 1.43359,0.88672l-2.28516,3.22266c-0.75,1.059 -1.96472,1.6875 -3.26172,1.6875h-8.43359c-1.383,0 -2.5,-1.117 -2.5,-2.5c0,-1.383 1.117,-2.5 2.5,-2.5h7.74219l2.27734,-3.58594c0.511,1.156 1.38234,2.14106 2.52734,2.78906z" id="strokeMainSVG" fill="#212121" stroke="#212121" stroke-linejoin="round"></path><g transform="scale(5.12,5.12)" fill="#e08484" stroke="none" stroke-linejoin="miter"><path d="M37.49609,3c-2.48,0 -4.49609,2.016 -4.49609,4.5c0,2.484 2.01609,4.5 4.49609,4.5c2.492,0 4.50391,-2.016 4.50391,-4.5c0,-2.484 -2.01191,-4.5 -4.50391,-4.5zM23,10c-0.39691,0 -0.76519,0.11915 -1.07617,0.31836l-0.03711,0.00586l-6.92969,4.97461v0.00195c-0.57243,0.35176 -0.95703,0.97773 -0.95703,1.69922c0,1.105 0.895,2 2,2c0.49196,0 0.93689,-0.18416 1.28516,-0.47852l0.00391,0.00586l5.99219,-4.30859l4.41016,1.39844l-4.93359,8.04297l0.00195,0.00977c-0.4733,0.65712 -0.75977,1.45746 -0.75977,2.33008c0,1.54588 0.88415,2.86909 2.16602,3.53516l0.00195,0.01172l7.58594,4.67969l-1.69531,8.74414c-0.03695,0.17077 -0.05859,0.3476 -0.05859,0.5293c0,1.379 1.121,2.5 2.5,2.5c1.22131,0 2.23606,-0.88001 2.45313,-2.03906h0.00195l2.02734,-10.67188l-0.00977,-0.02539c0.01164,-0.08734 0.02734,-0.17314 0.02734,-0.26367c0,-0.58354 -0.25404,-1.10322 -0.65234,-1.46875l-0.00781,-0.02344l-5.40234,-4.78906l4.67188,-9.23437l-0.00586,-0.01953c0.24534,-0.4348 0.39648,-0.93033 0.39648,-1.46484c0,-1.2317 -0.74425,-2.28813 -1.80664,-2.75l-0.00195,-0.00781l-2.50781,-1.39453l-8.16406,-1.78125l-0.02344,0.00391c-0.15969,-0.04103 -0.32355,-0.07031 -0.49609,-0.07031zM9.21289,16.38281c-0.51175,-0.01887 -1.03205,0.1582 -1.43555,0.5332l-3.17773,2.94922c-0.808,0.749 -0.85642,2.01617 -0.10742,2.82617l4.44336,4.78906h0.00195c0.363,0.392 0.85662,0.61572 1.39063,0.63672c0.025,0.001 0.05117,0.00195 0.07617,0.00195c0.506,0 0.98642,-0.1882 1.35742,-0.5332l3.17969,-2.94922c0.392,-0.363 0.61767,-0.85858 0.63867,-1.39258c0.02,-0.535 -0.1702,-1.04555 -0.5332,-1.43555l-4.44336,-4.78711c-0.3755,-0.4055 -0.87888,-0.6198 -1.39063,-0.63867zM37.21484,18.74219l-2.24219,4.42969l1.20703,2.66797l0.01172,0.00781c0.32,0.679 1.00759,1.15234 1.80859,1.15234h7c1.105,0 2,-0.895 2,-2c0,-1.105 -0.895,-2 -2,-2h-6zM20.51953,28.41406l-2.27734,3.58594h-7.74219c-1.383,0 -2.5,1.117 -2.5,2.5c0,1.383 1.117,2.5 2.5,2.5h8.43359c1.297,0 2.51172,-0.6285 3.26172,-1.6875l2.28516,-3.22266c-0.829,-0.511 -1.42559,-0.88272 -1.43359,-0.88672c-1.145,-0.648 -2.01634,-1.63306 -2.52734,-2.78906z"></path></g></g></svg>